<svg width="844" height="844" viewBox="0 0 844 844" fill="none" xmlns="http://www.w3.org/2000/svg">
<path d="M374.596 307.169C349.053 214.509 233.95 184.66 167.985 253.911C167.038 254.905 166.091 255.916 165.145 256.944C70.5753 359.745 115.252 613.08 312.618 677.29C509.984 741.5 715.271 624.246 726.804 519.431C738.336 414.615 647.282 381.68 505.975 410.991C426.139 427.548 390.497 364.851 374.596 307.169Z" fill="#CADFF5"/>
<path d="M126.414 526.267C110.417 504.823 86.2838 509.124 80.9649 534.871C79.2077 543.38 79.6044 554.023 83.9122 567.235C100.321 617.571 133.61 631.499 150.532 599.103C160.978 579.105 142.268 547.519 126.414 526.267Z" fill="#CADFF5"/>
<path d="M736.988 528.582C736.015 547.703 753.228 558.763 769.661 549.165C775.092 545.993 780.268 540.612 784.321 531.853C799.761 498.486 786.14 473.592 759.095 480.096C742.404 484.108 737.951 509.63 736.988 528.582Z" fill="#CADFF5"/>
<path d="M95.0563 369.495C92.2593 382.155 79.0355 386.287 70.0301 377.072C67.0541 374.025 64.6386 369.584 63.565 363.138C59.4716 338.581 72.8321 324.771 89.3222 333.87C99.4992 339.485 97.828 356.948 95.0563 369.495Z" fill="#CADFF5"/>
<path d="M543.607 216.54C543.607 218.631 542.754 220.537 541.367 221.918C539.996 223.307 538.089 224.158 535.997 224.158H373.148C368.965 224.158 365.538 220.731 365.538 216.54C365.538 214.448 366.391 212.543 367.778 211.164C369.149 209.774 371.056 208.922 373.148 208.922H380.845C383.885 201.858 390.905 196.92 399.077 196.92C404.576 196.92 409.551 199.16 413.153 202.772C417.95 194.636 426.799 189.171 436.93 189.171C439.716 189.171 442.396 189.593 444.926 190.357C450.225 180.393 460.699 173.609 472.772 173.609C487.27 173.609 499.466 183.398 503.147 196.718C505.818 195.382 508.832 194.618 512.029 194.618C521.07 194.618 528.699 200.654 531.097 208.922H536.001C540.18 208.922 543.607 212.35 543.607 216.54Z" fill="#CADFF5"/>
<path d="M640.869 350.901C640.869 352.863 640.069 354.652 638.768 355.947C637.482 357.25 635.692 358.048 633.731 358.048H480.928C477.004 358.048 473.788 354.833 473.788 350.9C473.788 348.936 474.588 347.149 475.891 345.854C477.177 344.551 478.967 343.751 480.928 343.751H488.151C491.004 337.122 497.59 332.49 505.259 332.49C510.419 332.49 515.086 334.592 518.466 337.981C522.968 330.347 531.269 325.218 540.774 325.218C543.387 325.218 545.903 325.613 548.278 326.331C553.249 316.983 563.076 310.617 574.404 310.617C588.008 310.617 599.451 319.802 602.906 332.301C605.413 331.049 608.24 330.331 611.242 330.331C619.726 330.331 626.881 335.995 629.133 343.753H633.733C637.654 343.753 640.869 346.968 640.869 350.901Z" fill="#CADFF5"/>
<path d="M678.856 234.897C672.935 234.897 668.117 230.08 668.117 224.158C668.117 218.236 672.935 213.419 678.856 213.419C684.778 213.419 689.595 218.236 689.595 224.158C689.595 230.08 684.776 234.897 678.856 234.897ZM678.856 216.788C674.792 216.788 671.486 220.093 671.486 224.158C671.486 228.221 674.793 231.528 678.856 231.528C682.919 231.528 686.226 228.221 686.226 224.158C686.224 220.095 682.919 216.788 678.856 216.788Z" fill="#3B73A9"/>
<path d="M717.515 272.573C711.593 272.573 706.776 267.756 706.776 261.834C706.776 255.913 711.593 251.095 717.515 251.095C723.436 251.095 728.254 255.913 728.254 261.834C728.254 267.756 723.436 272.573 717.515 272.573ZM717.515 254.464C713.452 254.464 710.145 257.771 710.145 261.834C710.145 265.897 713.452 269.204 717.515 269.204C721.578 269.204 724.885 265.897 724.885 261.834C724.885 257.77 721.578 254.464 717.515 254.464Z" fill="#FD7C78"/>
<path d="M730.782 307.469C729.852 307.469 729.098 306.714 729.098 305.784V298.356C729.098 297.425 729.852 296.671 730.782 296.671C731.713 296.671 732.467 297.425 732.467 298.356V305.784C732.467 306.714 731.713 307.469 730.782 307.469Z" fill="#3B73A9"/>
<path d="M730.782 320.47C729.852 320.47 729.098 319.715 729.098 318.785V311.357C729.098 310.426 729.852 309.672 730.782 309.672C731.713 309.672 732.467 310.426 732.467 311.357V318.785C732.467 319.715 731.713 320.47 730.782 320.47Z" fill="#3B73A9"/>
<path d="M741.211 310.256H734.538C733.608 310.256 732.854 309.501 732.854 308.571C732.854 307.641 733.608 306.887 734.538 306.887H741.211C742.141 306.887 742.896 307.641 742.896 308.571C742.894 309.501 742.141 310.256 741.211 310.256Z" fill="#3B73A9"/>
<path d="M727.028 310.256H720.356C719.426 310.256 718.671 309.501 718.671 308.571C718.671 307.641 719.426 306.887 720.356 306.887H727.028C727.958 306.887 728.713 307.641 728.713 308.571C728.713 309.501 727.958 310.256 727.028 310.256Z" fill="#3B73A9"/>
<path d="M671.485 265.843C670.555 265.843 669.8 265.089 669.8 264.158V256.73C669.8 255.799 670.555 255.045 671.485 255.045C672.415 255.045 673.169 255.799 673.169 256.73V264.158C673.169 265.089 672.415 265.843 671.485 265.843Z" fill="#0C4339"/>
<path d="M671.485 278.844C670.555 278.844 669.8 278.09 669.8 277.159V269.731C669.8 268.8 670.555 268.046 671.485 268.046C672.415 268.046 673.169 268.8 673.169 269.731V277.159C673.169 278.09 672.415 278.844 671.485 278.844Z" fill="#0C4339"/>
<path d="M681.913 268.63H675.241C674.31 268.63 673.556 267.875 673.556 266.945C673.556 266.015 674.31 265.261 675.241 265.261H681.913C682.843 265.261 683.598 266.015 683.598 266.945C683.598 267.875 682.843 268.63 681.913 268.63Z" fill="#0C4339"/>
<path d="M667.732 268.63H661.06C660.13 268.63 659.375 267.875 659.375 266.945C659.375 266.015 660.13 265.261 661.06 265.261H667.732C668.662 265.261 669.417 266.015 669.417 266.945C669.415 267.875 668.662 268.63 667.732 268.63Z" fill="#0C4339"/>
<path d="M165.6 210.205C165.6 204.283 170.417 199.466 176.339 199.466C182.26 199.466 187.078 204.283 187.078 210.205C187.078 216.126 182.26 220.944 176.339 220.944C170.417 220.944 165.6 216.126 165.6 210.205ZM168.969 210.205C168.969 214.27 172.276 217.575 176.339 217.575C180.402 217.575 183.708 214.268 183.708 210.205C183.708 206.142 180.402 202.835 176.339 202.835C172.274 202.835 168.969 206.14 168.969 210.205Z" fill="#3B73A9"/>
<path d="M122.473 251.137C122.473 245.216 127.29 240.398 133.212 240.398C139.133 240.398 143.951 245.216 143.951 251.137C143.951 257.059 139.133 261.876 133.212 261.876C127.29 261.876 122.473 257.059 122.473 251.137ZM125.842 251.137C125.842 255.202 129.149 258.507 133.212 258.507C137.275 258.507 140.582 255.202 140.582 251.137C140.582 247.072 137.277 243.767 133.212 243.767C129.147 243.767 125.842 247.074 125.842 251.137Z" fill="#FD7C78"/>
<path d="M100.146 266.208C101.076 266.208 101.83 265.453 101.83 264.523V257.094C101.83 256.164 101.076 255.41 100.146 255.41C99.2156 255.41 98.4611 256.164 98.4611 257.094V264.523C98.4611 265.453 99.2156 266.208 100.146 266.208Z" fill="#3B73A9"/>
<path d="M100.146 279.209C101.076 279.209 101.83 278.454 101.83 277.524V270.095C101.83 269.165 101.076 268.411 100.146 268.411C99.2156 268.411 98.4611 269.165 98.4611 270.095V277.524C98.4611 278.454 99.2156 279.209 100.146 279.209Z" fill="#3B73A9"/>
<path d="M89.7189 268.993H96.3916C97.3217 268.993 98.0762 268.238 98.0762 267.308C98.0762 266.378 97.3217 265.624 96.3916 265.624H89.7189C88.7888 265.624 88.0343 266.378 88.0343 267.308C88.0343 268.24 88.7888 268.993 89.7189 268.993Z" fill="#3B73A9"/>
<path d="M103.9 268.993H110.572C111.503 268.993 112.257 268.238 112.257 267.308C112.257 266.378 111.503 265.624 110.572 265.624H103.9C102.97 265.624 102.215 266.378 102.215 267.308C102.215 268.24 102.97 268.993 103.9 268.993Z" fill="#3B73A9"/>
<path d="M138.961 209.104C139.891 209.104 140.646 208.35 140.646 207.42V199.991C140.646 199.061 139.891 198.306 138.961 198.306C138.031 198.306 137.277 199.061 137.277 199.991V207.42C137.277 208.35 138.031 209.104 138.961 209.104Z" fill="#0C4339"/>
<path d="M138.961 222.104C139.891 222.104 140.646 221.349 140.646 220.419V212.99C140.646 212.06 139.891 211.306 138.961 211.306C138.031 211.306 137.277 212.06 137.277 212.99V220.419C137.277 221.349 138.031 222.104 138.961 222.104Z" fill="#0C4339"/>
<path d="M128.534 211.889H135.207C136.137 211.889 136.892 211.135 136.892 210.205C136.892 209.275 136.137 208.52 135.207 208.52H128.534C127.604 208.52 126.85 209.275 126.85 210.205C126.85 211.135 127.604 211.889 128.534 211.889Z" fill="#0C4339"/>
<path d="M142.715 211.889H149.388C150.318 211.889 151.073 211.135 151.073 210.205C151.073 209.275 150.318 208.52 149.388 208.52H142.715C141.785 208.52 141.031 209.275 141.031 210.205C141.031 211.135 141.785 211.889 142.715 211.889Z" fill="#0C4339"/>
<path d="M561.078 249.385V280.463C561.078 284.571 557.744 287.904 553.637 287.904H497.209L480.174 294.016C478.425 294.644 476.749 292.924 477.42 291.195L483.865 274.553V249.385C483.865 245.276 487.199 241.944 491.309 241.944H553.639C557.746 241.943 561.078 245.276 561.078 249.385Z" fill="#FD7C78"/>
<g opacity="0.5">
<path d="M549.182 258.178H497.415C496.28 258.178 495.362 257.258 495.362 256.125C495.362 254.991 496.282 254.073 497.415 254.073H549.182C550.317 254.073 551.235 254.993 551.235 256.125C551.237 257.258 550.317 258.178 549.182 258.178Z" fill="#D64E5A"/>
<path d="M549.182 266.447H497.415C496.28 266.447 495.362 265.527 495.362 264.393C495.362 263.259 496.282 262.34 497.415 262.34H549.182C550.317 262.34 551.235 263.26 551.235 264.393C551.237 265.527 550.317 266.447 549.182 266.447Z" fill="#D64E5A"/>
<path d="M549.182 274.717H497.415C496.28 274.717 495.362 273.797 495.362 272.664C495.362 271.53 496.282 270.61 497.415 270.61H549.182C550.317 270.61 551.235 271.53 551.235 272.664C551.237 273.797 550.317 274.717 549.182 274.717Z" fill="#D64E5A"/>
</g>
<path d="M345.745 172.039C345.927 172.085 346.121 172.087 346.315 172.036C348.373 171.498 349.565 171.278 349.576 171.276C350.199 171.163 350.613 170.567 350.5 169.945C350.387 169.322 349.791 168.908 349.168 169.02C349.117 169.03 347.888 169.253 345.733 169.818C345.12 169.978 344.754 170.605 344.914 171.217C345.027 171.636 345.353 171.94 345.745 172.039Z" fill="#CADFF5"/>
<path d="M279.143 224.584C278.074 226.531 277.046 228.55 276.084 230.586C275.846 231.091 275.288 231.341 274.766 231.209C274.695 231.19 274.626 231.167 274.557 231.135C273.984 230.865 273.74 230.181 274.01 229.609C274.99 227.532 276.04 225.471 277.131 223.483C277.435 222.928 278.128 222.725 278.687 223.029C279.244 223.331 279.447 224.028 279.143 224.584Z" fill="#CADFF5"/>
<path d="M273.39 236.761C272.563 238.819 271.777 240.946 271.054 243.084C270.862 243.655 270.262 243.974 269.687 243.829C269.658 243.822 269.629 243.814 269.599 243.803C269 243.601 268.677 242.949 268.88 242.35C269.618 240.171 270.418 238.003 271.262 235.907C271.498 235.32 272.166 235.034 272.754 235.271C273.343 235.507 273.627 236.174 273.39 236.761Z" fill="#CADFF5"/>
<path d="M263.669 270.343C263.115 270.203 262.741 269.668 262.815 269.086C263.109 266.804 263.453 264.522 263.841 262.302C263.951 261.677 264.545 261.26 265.168 261.37C265.799 261.483 266.209 262.074 266.1 262.697C265.717 264.883 265.377 267.13 265.089 269.378C265.008 270.006 264.434 270.45 263.806 270.369C263.76 270.364 263.715 270.355 263.669 270.343Z" fill="#CADFF5"/>
<path d="M268.274 248.114C268.883 248.285 269.241 248.918 269.069 249.527C268.789 250.533 268.517 251.553 268.264 252.556C267.97 253.713 267.688 254.897 267.423 256.073C267.285 256.691 266.67 257.079 266.053 256.941C266.042 256.939 266.032 256.936 266.022 256.934C265.421 256.782 265.05 256.18 265.187 255.572C265.455 254.375 265.744 253.172 266.042 251.995C266.301 250.974 266.576 249.937 266.863 248.913C267.03 248.312 267.646 247.957 268.249 248.109C268.255 248.111 268.265 248.113 268.274 248.114Z" fill="#CADFF5"/>
<path d="M282.563 218.782C282.291 219.212 281.78 219.4 281.312 219.282C281.197 219.253 281.086 219.206 280.981 219.14C280.446 218.802 280.286 218.093 280.625 217.558C281.847 215.624 283.145 213.708 284.482 211.863C284.853 211.35 285.569 211.235 286.084 211.608C286.595 211.979 286.71 212.697 286.339 213.208C285.029 215.013 283.76 216.888 282.563 218.782Z" fill="#CADFF5"/>
<path d="M339.882 173.989C337.791 174.705 335.667 175.505 333.572 176.371C333.334 176.469 333.085 176.482 332.853 176.423C332.514 176.337 332.219 176.098 332.075 175.75C331.834 175.164 332.112 174.494 332.696 174.253C334.835 173.37 337.002 172.551 339.14 171.822C339.739 171.618 340.39 171.938 340.595 172.536C340.8 173.132 340.481 173.783 339.882 173.989Z" fill="#CADFF5"/>
<path d="M321.431 182.24C321.164 182.389 320.864 182.419 320.59 182.35C320.295 182.276 320.03 182.083 319.871 181.798C319.562 181.244 319.76 180.547 320.313 180.238C322.308 179.126 324.361 178.057 326.417 177.063C326.988 176.788 327.671 177.026 327.948 177.597C328.223 178.167 327.985 178.852 327.415 179.128C325.399 180.102 323.387 181.15 321.431 182.24Z" fill="#CADFF5"/>
<path d="M299.686 198.075C299.39 198.352 298.985 198.443 298.619 198.35C298.413 198.298 298.221 198.188 298.065 198.023C297.633 197.56 297.655 196.835 298.118 196.402C299.782 194.844 301.519 193.315 303.285 191.858C303.773 191.455 304.495 191.524 304.9 192.012C305.304 192.5 305.234 193.222 304.747 193.626C303.018 195.052 301.315 196.549 299.686 198.075Z" fill="#CADFF5"/>
<path d="M310.072 189.498C309.785 189.706 309.434 189.764 309.115 189.682C308.864 189.618 308.634 189.471 308.47 189.245C308.099 188.734 308.21 188.016 308.723 187.643C310.563 186.305 312.476 185.002 314.409 183.768C314.942 183.427 315.651 183.584 315.992 184.117C316.333 184.651 316.176 185.36 315.643 185.7C313.749 186.909 311.875 188.187 310.072 189.498Z" fill="#CADFF5"/>
<path d="M290.461 207.882C290.169 208.235 289.712 208.368 289.296 208.264C289.136 208.223 288.982 208.147 288.847 208.036C288.359 207.633 288.292 206.91 288.695 206.422C290.15 204.662 291.683 202.926 293.248 201.262C293.682 200.801 294.406 200.778 294.868 201.213C295.329 201.647 295.353 202.373 294.919 202.834C293.386 204.461 291.887 206.161 290.461 207.882Z" fill="#CADFF5"/>
<path d="M346.886 164.278L344.566 145.168L405.346 154.454L346.886 164.278Z" fill="#FD7C78"/>
<path d="M405.348 154.452L349.2 169.143L349.051 169.185L346.231 172.629L346.886 164.278L405.348 154.452Z" fill="#D64E5A"/>
<path d="M346.231 172.629L351.276 172.561L349.051 169.185L346.231 172.629Z" fill="#B2304F"/>
<path d="M356.116 167.335L349.05 169.183L360.543 186.615L405.346 154.454L356.116 167.335Z" fill="#FD7C78"/>
<path d="M217.884 709.564C196.37 687.705 152.357 639.499 124.368 584.949C83.1779 504.663 41.8708 511.839 33.7668 540.221C15.4266 604.446 107.661 673.551 165.301 709.564H217.884Z" fill="#3B73A9"/>
<path d="M200.75 709.564C168.066 683.912 140.437 654.767 121.234 632.389C93.6199 600.211 76.9846 574.703 76.8175 574.445C76.2233 573.53 74.9945 573.268 74.0779 573.868C73.1579 574.46 72.8963 575.687 73.4955 576.606C73.6576 576.862 90.411 602.55 118.182 634.921C136.743 656.559 163.137 684.486 194.375 709.566H200.75V709.564Z" fill="#0C4339"/>
<path d="M214.325 682.936C204.665 663.655 186.347 623.263 179.554 582.107C169.406 520.609 140.725 516.612 129.407 533.568C98.3176 580.137 172.824 665.799 196.59 691.156L214.325 682.936Z" fill="#0C4339"/>
<path d="M207.575 686.065C189.431 660.602 176.045 632.971 167.482 612.644C156.111 585.653 150.553 565.367 150.499 565.161C150.301 564.433 149.548 564.003 148.819 564.204C148.088 564.399 147.658 565.151 147.859 565.882C147.911 566.084 153.508 586.514 164.941 613.665C173.515 634.028 186.902 661.676 205.051 687.235L207.575 686.065Z" fill="#263238"/>
<path d="M637.696 512.294C656.117 490.705 696.114 440.34 719.523 384.816C753.116 305.133 793.103 309.022 802.889 335.56C828.195 404.198 715.947 489.305 669.143 521.144L637.696 512.294Z" fill="#3B73A9"/>
<path d="M648.764 515.408C681.177 487.065 707.925 454.406 725.928 429.925C750.004 397.189 764.066 371.62 764.208 371.36C764.71 370.443 765.866 370.104 766.784 370.612C767.706 371.111 768.043 372.266 767.537 373.186C767.4 373.443 753.238 399.195 729.027 432.124C711.244 456.315 684.97 488.441 653.118 516.634L648.764 515.408Z" fill="#0C4339"/>
<path d="M640.601 484.921C648.447 465.803 663.048 425.887 666.581 386.067C671.858 326.57 698.979 320.687 711.014 336.079C744.072 378.345 679.028 465.562 658.141 491.503L640.601 484.921Z" fill="#0C4339"/>
<path d="M647.279 487.426C662.788 461.789 673.595 434.423 680.315 414.383C689.241 387.774 693.093 367.987 693.132 367.786C693.268 367.077 693.957 366.611 694.668 366.749C695.38 366.883 695.846 367.571 695.706 368.284C695.67 368.481 691.79 388.406 682.816 415.175C676.086 435.25 665.28 462.633 649.774 488.363L647.279 487.426Z" fill="#263238"/>
<path d="M751.195 574.99C756.96 544.445 768.047 516.588 780.646 528.084C793.257 539.589 773.271 587.165 743.454 613.53L735.456 624.924C756.85 605.332 791.27 593.647 800.613 604.712C809.897 615.708 786.28 621.405 763.84 623.012C746.759 624.234 735.857 628.95 730.568 631.889L692.792 685.702C726.76 654.771 781.107 636.386 795.892 653.895C810.623 671.344 773.148 680.383 737.543 682.932C710.636 684.858 693.381 692.248 684.921 696.917L677.389 707.648C675.323 706.634 673.264 705.607 671.213 704.569L716.154 640.545C716.416 633.965 715.808 624.663 712.533 613.071C706.418 591.421 703.751 567.272 717.248 572.267C728.961 576.602 731.101 604.224 724.314 628.921L739.855 606.78C743.491 599.111 748.707 588.173 751.195 574.99Z" fill="#3B73A9"/>
<path d="M156.046 330.748C152.999 305.459 145.453 282.075 134.524 290.786C123.584 299.507 137.329 339.5 160.272 362.685L166.19 372.438C149.766 355.25 122.258 343.818 114.014 352.356C105.822 360.842 124.824 366.789 143.085 369.326C156.986 371.258 165.643 375.708 169.808 378.4L197.759 424.466C171.671 397.321 128.236 379.32 115.191 392.831C102.193 406.295 132.343 415.732 161.319 419.758C183.216 422.802 196.922 429.787 203.585 434.066L209.158 443.25C210.902 442.533 212.642 441.807 214.378 441.069L181.122 386.265C181.268 380.87 182.272 373.296 185.582 363.997C191.764 346.627 195.263 327.026 183.955 330.375C174.141 333.28 170.883 355.751 175.086 376.316L163.586 357.363C161.03 350.894 157.362 341.664 156.046 330.748Z" fill="#3B73A9"/>
<path d="M410.778 699.689C411.074 694.777 411.352 690.103 411.609 685.77C412.65 668.055 413.32 655.963 413.32 655.963L406.383 655.653L402.472 655.476L355.304 653.381C355.304 653.381 354.445 666.905 353.433 686.764C353.226 690.829 353.013 695.159 352.799 699.691H410.778V699.689Z" fill="#263238"/>
<path d="M406.381 655.653L413.319 655.964C413.319 655.964 412.649 668.057 411.607 685.77C393.485 687.281 373.698 687.896 353.43 686.763C354.441 666.904 355.3 653.379 355.3 653.379L402.468 655.474L406.381 655.653Z" fill="#00C6A0"/>
<path d="M403.905 699.69C404.998 680.765 405.896 664.556 406.384 655.653L402.473 655.478C401.984 664.419 401.082 680.703 399.985 699.69H403.905Z" fill="#00C6A0"/>
<path d="M425.98 699.69H483.961C483.747 695.157 483.533 690.826 483.327 686.763C482.316 666.904 481.456 653.379 481.456 653.379L434.287 655.474L430.376 655.651L423.438 655.962C423.438 655.962 424.108 668.055 425.15 685.769C425.405 690.104 425.683 694.779 425.98 699.69Z" fill="#263238"/>
<path d="M430.376 655.653L423.438 655.964C423.438 655.964 424.108 668.057 425.15 685.77C443.272 687.281 463.059 687.896 483.327 686.763C482.316 666.904 481.456 653.379 481.456 653.379L434.287 655.474L430.376 655.653Z" fill="#00C6A0"/>
<path d="M436.773 699.69C435.676 680.703 434.775 664.419 434.285 655.478L430.374 655.653C430.862 664.554 431.76 680.765 432.854 699.69H436.773Z" fill="#00C6A0"/>
<path d="M488.156 646.831C488.156 652.403 488.143 656.823 488.105 659.805C474.907 663.359 461.715 665.936 448.525 667.513C448.176 667.555 447.821 667.599 447.469 667.641C446.881 667.709 446.297 667.781 445.718 667.845C445.57 667.859 445.424 667.876 445.276 667.887C442.984 668.134 440.708 668.357 438.416 668.547C433.661 668.939 426.745 669.277 421.99 669.408L418.302 647.441L414.612 669.408C411.886 669.366 407.119 669.28 404.391 669.157C403.39 669.106 402.401 669.059 401.408 668.995C400.522 668.953 399.619 668.892 398.728 668.829C398.322 668.807 397.917 668.782 397.514 668.753C396.756 668.698 396.01 668.642 395.252 668.583C378.58 667.236 361.921 664.317 345.258 659.805C345.174 653.239 345.088 639.873 345.066 622.622C345.066 621.677 345.063 620.718 345.066 619.746C345.044 600.722 345.117 577.379 345.343 553.335C345.365 551.434 345.385 549.53 345.407 547.621C345.429 545.047 345.458 542.457 345.493 539.858C345.502 539.334 345.507 538.815 345.515 538.29C345.523 537.246 345.537 536.198 345.557 535.153C345.579 533.632 345.599 532.115 345.621 530.602C345.672 527.156 345.719 523.714 345.778 520.292C346.58 472.566 348.191 428.698 351.263 417.535C351.548 416.509 351.847 415.754 352.149 415.307C352.476 414.812 352.881 414.306 353.334 413.791C353.904 413.14 354.569 412.469 355.316 411.789C360.423 407.085 369.294 401.624 378.284 396.433C379.327 395.832 380.384 395.228 381.429 394.631C381.586 394.545 405.859 386.356 406.016 386.263L431.406 388.041C434.456 389.835 458.478 397.998 461.422 399.835C462.294 400.38 463.155 400.925 463.999 401.467C470.91 405.923 476.777 410.343 479.341 414.103C483.035 419.54 485.271 468.27 486.563 521.283C486.596 522.502 486.627 523.724 486.657 524.943C486.789 530.55 486.912 536.191 487.023 541.823C487.138 547.388 487.236 552.943 487.331 558.453C487.479 567.472 487.608 576.356 487.714 584.907C487.727 585.879 487.736 586.841 487.748 587.809C487.851 596.147 487.927 604.143 487.991 611.608C487.999 612.587 488.004 613.551 488.013 614.509C488.097 625.723 488.149 635.642 488.153 643.609V643.617C488.156 644.731 488.156 645.797 488.156 646.831Z" fill="#3B73A9"/>
<path d="M419.573 424.498L434.344 549.159L418.359 580.012L401.952 549.159L417.603 424.535L419.573 424.498Z" fill="#EDEDED"/>
<path d="M428.73 419.535L418.46 436.015L407.866 419.68L418.298 399.752L428.73 419.535Z" fill="white"/>
<path d="M403.716 384.268C403.716 384.268 394.584 384.17 391.489 391.537C391.489 391.537 390.554 414.127 407.868 419.681L418.3 399.752C418.3 399.752 405.299 395.741 403.716 384.268Z" fill="#0C4339"/>
<path d="M431.932 384.268C431.932 384.268 439.761 385.413 442.855 392.781C442.855 392.781 446.025 414.127 428.71 419.681L418.298 399.752C418.298 399.752 430.347 395.741 431.932 384.268Z" fill="#0C4339"/>
<path d="M421.988 592.861C421.988 594.898 420.336 596.551 418.298 596.551C416.261 596.551 414.608 594.898 414.608 592.861C414.608 590.823 416.261 589.171 418.298 589.171C420.336 589.171 421.988 590.822 421.988 592.861Z" fill="#0C4339"/>
<path d="M421.988 622.266C421.988 624.304 420.336 625.956 418.298 625.956C416.261 625.956 414.608 624.304 414.608 622.266C414.608 620.229 416.261 618.576 418.298 618.576C420.336 618.578 421.988 620.229 421.988 622.266Z" fill="#0C4339"/>
<path d="M452.791 493.936H451.282C443.083 493.936 436.436 487.29 436.436 479.092V460.024H467.637V479.092C467.637 487.288 460.989 493.936 452.791 493.936Z" fill="#0C4339"/>
<path d="M383.35 321.53C383.35 321.53 383.922 307.999 382.099 302.613C378.873 293.086 380.425 285.767 387.553 283.488C395.713 280.88 389.003 275.203 396.874 272.717C404.745 270.23 406.658 276.933 411.431 274.374C416.207 271.815 417.826 269.97 422.557 269.334C429.748 268.367 430.202 275.218 435.163 274.305C443.407 272.786 448.016 278.103 449.69 283.488C451.365 288.873 450.088 290.4 453.898 291.98C459.563 294.328 458.527 303.648 455.419 307.584C452.313 311.519 452.823 313.079 452.602 319.307C452.382 325.534 383.35 321.53 383.35 321.53Z" fill="#263238"/>
<path d="M449.081 333.615C449.081 333.615 455.039 325.671 459.469 332.241C463.9 338.809 457.635 358.211 446.788 353.476L449.081 333.615Z" fill="#FB9E82"/>
<path d="M449.158 347.479C449.558 347.479 449.926 347.213 450.041 346.81C451.722 340.819 457.927 338.392 457.99 338.368C458.463 338.188 458.701 337.659 458.52 337.187C458.341 336.714 457.813 336.476 457.34 336.653C457.05 336.763 450.212 339.417 448.275 346.315C448.139 346.803 448.424 347.308 448.91 347.445C448.993 347.467 449.076 347.479 449.158 347.479Z" fill="#FC7972"/>
<path d="M455.421 344.462C455.591 344.462 455.763 344.415 455.917 344.315C456.342 344.04 456.466 343.474 456.19 343.047C456.145 342.976 455.048 341.302 452.75 340.274C452.291 340.066 451.746 340.274 451.54 340.736C451.334 341.199 451.54 341.741 452.003 341.947C453.778 342.742 454.641 344.026 454.649 344.04C454.825 344.313 455.12 344.462 455.421 344.462Z" fill="#FC7972"/>
<path d="M387.681 333.615C387.681 333.615 381.724 325.671 377.293 332.241C372.862 338.809 379.127 358.211 389.974 353.476L387.681 333.615Z" fill="#FB9E82"/>
<path d="M387.604 347.479C387.204 347.479 386.836 347.213 386.721 346.81C385.04 340.819 378.835 338.392 378.772 338.368C378.299 338.188 378.061 337.659 378.24 337.187C378.419 336.714 378.949 336.476 379.42 336.653C379.711 336.763 386.549 339.417 388.485 346.315C388.622 346.803 388.338 347.308 387.85 347.445C387.769 347.467 387.686 347.479 387.604 347.479Z" fill="#FC7972"/>
<path d="M381.34 344.462C381.169 344.462 380.999 344.415 380.843 344.315C380.418 344.04 380.295 343.474 380.57 343.047C380.615 342.976 381.713 341.302 384.01 340.274C384.471 340.066 385.014 340.274 385.22 340.736C385.428 341.199 385.22 341.741 384.758 341.947C382.982 342.742 382.118 344.026 382.111 344.04C381.937 344.313 381.642 344.462 381.34 344.462Z" fill="#FC7972"/>
<path d="M403.716 369.93V389.224C403.716 389.224 409.47 399.05 417.252 399.72C425.025 400.399 431.934 391.26 431.934 391.26V371.287L403.716 369.93Z" fill="#FDBEAB"/>
<path d="M403.716 369.93V378.492C408.937 384.285 418.21 385.733 431.932 383.708V371.287L403.716 369.93Z" fill="#FB9E82"/>
<path d="M383.377 320.383C383.73 327.881 384.444 337.259 385.877 344.751V344.773C385.877 344.795 385.884 344.817 385.892 344.845C385.892 344.852 385.899 344.852 385.899 344.86C386.252 346.69 386.648 348.412 387.08 349.96C387.34 350.868 387.621 351.818 387.938 352.791C392.512 367.139 403.106 387.904 429.736 378.404C440.951 374.407 446.793 362.824 449.768 350.262C449.94 349.513 450.107 348.772 450.25 348.058C450.352 347.582 450.445 347.121 450.531 346.667L450.661 345.996C450.683 345.882 450.696 345.802 450.705 345.752C450.711 345.723 450.711 345.708 450.711 345.708C452.468 336.049 452.735 326.282 452.605 319.302C452.469 312.186 448.579 305.675 442.384 302.168C425.609 292.652 407.897 296.204 396.236 300.684C388.137 303.786 382.958 311.732 383.377 320.383Z" fill="#FDBEAB"/>
<path d="M385.868 344.749C385.868 344.749 385.868 344.755 385.875 344.771C385.875 344.793 385.882 344.814 385.89 344.843C385.89 344.85 385.897 344.85 385.897 344.858C386.069 345.485 387.006 348.92 387.936 352.789C392.511 367.137 403.105 387.902 429.734 378.402C440.95 374.405 446.792 362.822 449.766 350.26C449.938 349.51 450.105 348.769 450.249 348.055C450.35 347.579 450.443 347.119 450.529 346.664L450.659 345.994C450.681 345.88 450.694 345.8 450.703 345.75C450.71 345.721 450.71 345.706 450.71 345.706L446.792 344.914C446.042 348.624 444.386 352.117 442.354 355.221C439.04 347.284 422.23 352.556 422.23 352.556L422.15 352.584C421.127 352.902 420.076 353.067 419.017 353.067C417.93 353.067 416.85 352.895 415.798 352.556C415.798 352.556 399.188 347.053 395.745 354.623C392.301 349.293 389.969 344.46 389.969 344.46L385.877 344.749H385.868ZM418.973 356.151C437.982 353.587 434.993 363.821 434.993 363.821C432.883 365.744 430.952 367.148 429.655 367.876C425.506 370.188 421.423 371.066 418.462 370.923C415.545 370.8 414.745 371.399 407.37 367.408C406.067 366.709 404.749 365.673 403.459 364.441C403.459 364.441 403.459 364.441 403.452 364.441V364.434C403.133 362.432 399.914 352.873 418.973 356.151Z" fill="#263238"/>
<path d="M401.747 334.334C401.747 336.393 402.809 338.063 404.119 338.063C405.427 338.063 406.489 336.393 406.489 334.334C406.489 332.274 405.427 330.605 404.119 330.605C402.809 330.605 401.747 332.274 401.747 334.334Z" fill="#263238"/>
<path d="M431.387 334.334C431.387 336.393 432.449 338.063 433.757 338.063C435.067 338.063 436.129 336.393 436.129 334.334C436.129 332.274 435.067 330.605 433.757 330.605C432.447 330.605 431.387 332.274 431.387 334.334Z" fill="#263238"/>
<path d="M395.677 321.76C395.677 321.76 405.475 317.888 413.018 321.147L412.264 325.342C412.264 325.342 401.192 324.405 395.613 326.665C395.115 325.051 395.041 323.419 395.677 321.76Z" fill="#263238"/>
<path d="M442.261 321.779C442.261 321.779 432.391 317.878 424.794 321.161L425.553 325.388C425.553 325.388 436.706 324.444 442.325 326.721C442.828 325.096 442.903 323.451 442.261 321.779Z" fill="#263238"/>
<path d="M418.062 351.001C416.516 351.001 414.981 350.4 414.745 350.302C414.277 350.111 414.053 349.576 414.244 349.107C414.434 348.638 414.97 348.413 415.437 348.604C416.266 348.94 418.253 349.467 419.114 348.952C419.279 348.852 419.507 348.655 419.564 348.098C419.895 344.897 419.019 334.168 419.011 334.06C418.968 333.556 419.345 333.113 419.85 333.071C420.356 333.029 420.796 333.405 420.839 333.91C420.876 334.357 421.738 344.917 421.389 348.287C421.257 349.554 420.592 350.204 420.055 350.525C419.47 350.878 418.764 351.001 418.062 351.001Z" fill="#FB9E82"/>
<path d="M429.748 357.983C429.053 361.484 426.738 367.925 418.948 367.925C411.138 367.925 408.947 362.039 408.196 357.983H429.748Z" fill="white"/>
<path d="M383.374 320.379C383.731 327.877 384.445 337.254 385.877 344.751L389.974 344.46C389.974 344.46 388.981 338.129 388.522 334.005C388.064 329.879 387.285 322.17 390.806 321.208C394.315 320.254 392.256 311.46 397.141 307.647C402.026 303.825 412.954 302.777 420.158 307.213C427.363 311.641 435.482 306.877 438.801 307.647C442.128 308.408 446.638 312.991 445.419 317.272C444.19 321.542 447.857 324.147 448.746 328.573C449.636 333 446.793 344.916 446.793 344.916L450.708 345.704C452.468 336.044 452.733 326.281 452.605 319.306C452.468 312.184 448.581 305.675 442.384 302.166C425.601 292.652 407.893 296.199 396.234 300.68C388.139 303.788 382.96 311.735 383.374 320.379Z" fill="#263238"/>
<path d="M357.392 409.997C357.392 409.997 333.287 426.085 317.793 430.869L328.169 474.348C328.169 474.348 329.601 473.754 347.183 466.283L357.392 409.997Z" fill="#3B73A9"/>
<path d="M475.591 409.997C475.591 409.997 521.67 433.615 537.164 438.399C531.237 449.087 527.454 459.025 522.409 473.352C522.409 473.352 500.271 467.495 482.687 460.024L475.591 409.997Z" fill="#3B73A9"/>
<path d="M662.822 699.98C661.969 683.848 661.299 673.31 661.299 673.31L614.005 675.411L610.084 675.588L603.127 675.899C603.127 675.899 603.656 685.436 604.503 699.98H662.822Z" fill="#375BC7"/>
<path d="M662.822 699.98C661.969 683.848 661.299 673.31 661.299 673.31L614.005 675.411L610.084 675.588L603.127 675.899C603.127 675.899 603.656 685.436 604.503 699.98H662.822Z" fill="#263238"/>
<path d="M615.369 699.98C614.785 689.643 614.312 681.065 614.003 675.413L610.082 675.59C610.389 681.203 610.86 689.715 611.439 699.98H615.369Z" fill="#00C6A0"/>
<path d="M589.617 699.98C590.471 685.434 590.996 675.899 590.996 675.899L583.447 675.563L579.531 675.386L532.817 673.31C532.817 673.31 532.304 681.39 531.602 694.236C531.502 696.055 531.399 697.978 531.295 699.98H589.617Z" fill="#263238"/>
<path d="M582.088 699.98C582.669 689.7 583.138 681.177 583.444 675.563L579.528 675.386C579.219 681.037 578.744 689.626 578.16 699.978H582.088V699.98Z" fill="#00C6A0"/>
<path d="M560.102 329.059C560.102 350.375 573.224 365.062 594.532 365.062C615.848 365.062 630.708 349.271 630.708 327.955C630.708 322.075 629.749 316.586 627.904 311.73C627.796 311.441 627.686 311.151 627.57 310.87C627.343 310.318 627.109 309.767 626.856 309.233C626.484 308.409 626.069 307.606 625.635 306.828C620.082 296.843 610.134 290.495 596.767 290.495C571.209 290.495 560.102 307.741 560.102 329.059Z" fill="#263238"/>
<path d="M573.062 296.178C573.062 308.523 583.069 318.531 595.415 318.531C607.759 318.531 617.766 308.524 617.766 296.178C617.766 283.834 607.759 273.826 595.415 273.826C583.071 273.826 573.062 283.834 573.062 296.178Z" fill="#263238"/>
<path d="M564.887 338.236C564.887 338.236 558.966 330.34 554.562 336.869C550.158 343.398 556.383 362.682 567.165 357.976L564.887 338.236Z" fill="#FB9E82"/>
<path d="M564.811 352.016C564.413 352.016 564.049 351.752 563.934 351.351C562.263 345.397 556.095 342.983 556.032 342.96C555.563 342.781 555.327 342.254 555.504 341.785C555.681 341.315 556.208 341.077 556.677 341.256C556.966 341.366 563.762 344.003 565.688 350.859C565.823 351.344 565.541 351.847 565.056 351.982C564.977 352.004 564.892 352.016 564.811 352.016Z" fill="#FC7972"/>
<path d="M558.586 349.016C558.417 349.016 558.247 348.968 558.093 348.871C557.671 348.599 557.548 348.035 557.82 347.611C557.865 347.542 558.956 345.876 561.24 344.855C561.697 344.649 562.237 344.855 562.443 345.314C562.649 345.773 562.443 346.312 561.984 346.517C560.218 347.307 559.361 348.585 559.353 348.599C559.179 348.869 558.885 349.016 558.586 349.016Z" fill="#FC7972"/>
<path d="M625.915 338.236C625.915 338.236 631.837 330.34 636.241 336.869C640.645 343.398 634.418 362.682 623.638 357.976L625.915 338.236Z" fill="#FB9E82"/>
<path d="M625.993 352.016C626.391 352.016 626.756 351.752 626.869 351.351C628.54 345.397 634.708 342.983 634.771 342.96C635.24 342.781 635.476 342.254 635.297 341.785C635.12 341.315 634.593 341.077 634.124 341.256C633.835 341.366 627.04 344.003 625.114 350.859C624.979 351.344 625.26 351.847 625.745 351.982C625.828 352.004 625.912 352.016 625.993 352.016Z" fill="#FC7972"/>
<path d="M632.218 349.016C632.387 349.016 632.559 348.968 632.711 348.871C633.135 348.599 633.257 348.035 632.985 347.611C632.939 347.542 631.849 345.876 629.565 344.855C629.107 344.649 628.567 344.855 628.361 345.314C628.155 345.773 628.361 346.312 628.82 346.517C630.586 347.307 631.444 348.585 631.452 348.599C631.626 348.869 631.92 349.016 632.218 349.016Z" fill="#FC7972"/>
<path d="M609.979 374.331V393.508C609.979 393.508 604.26 403.275 596.526 403.94C588.8 404.614 581.933 395.531 581.933 395.531V375.68L609.979 374.331Z" fill="#FDBEAB"/>
<path d="M609.979 374.331V382.84C604.79 388.6 595.572 390.038 581.933 388.024V375.68L609.979 374.331Z" fill="#FB9E82"/>
<path d="M561.387 329.963C561.393 330.311 561.402 330.667 561.408 331.032C561.432 331.964 561.462 332.911 561.506 333.888C561.528 334.381 561.552 334.874 561.582 335.365C561.613 335.865 561.635 336.364 561.673 336.872C561.673 336.894 561.673 336.955 561.682 337.04C561.712 337.487 561.749 337.934 561.78 338.397C562.068 342.147 562.523 346.08 563.226 349.997C563.242 350.079 563.257 350.171 563.272 350.255C563.385 350.891 563.515 351.528 563.643 352.164C566.386 365.628 572.198 378.502 584.115 382.752C612.378 392.845 622.47 368.614 626.508 354.483C626.872 353.202 627.213 351.793 627.507 350.309C627.576 349.983 627.644 349.649 627.705 349.31C627.72 349.227 627.735 349.143 627.75 349.051C629.129 341.71 629.835 332.624 630.189 325.298C630.189 325.222 630.196 325.154 630.196 325.085C630.606 316.493 625.453 308.59 617.415 305.506C605.821 301.051 588.221 297.52 571.545 306.976C565.385 310.469 561.52 316.941 561.385 324.017C561.356 325.826 561.349 327.826 561.387 329.963Z" fill="#FDBEAB"/>
<path d="M563.228 349.997C563.243 350.079 563.259 350.17 563.274 350.255C565.85 364.394 571.638 378.296 584.117 382.752C612.379 392.845 622.472 368.614 626.51 354.483C626.957 352.915 627.359 351.165 627.706 349.308C627.722 349.225 627.737 349.141 627.752 349.05L624.714 348.837C624.714 348.837 622.327 353.778 618.811 359.216C615.295 351.489 598.323 357.11 598.323 357.11C597.255 357.451 596.149 357.625 595.035 357.625C593.96 357.625 592.883 357.458 591.838 357.132L591.755 357.11C591.755 357.11 574.587 351.723 571.199 359.829C569.123 356.654 567.433 353.086 566.668 349.298L563.228 349.997ZM595.081 360.778C614.554 357.429 611.265 367.196 610.939 369.241V369.248C610.933 369.248 610.933 369.248 610.933 369.248C609.614 370.506 608.266 371.568 606.939 372.278C599.4 376.355 598.582 375.74 595.604 375.87C592.581 376.014 588.406 375.121 584.171 372.756C582.846 372.013 580.875 370.582 578.716 368.612C578.716 368.612 575.662 358.156 595.081 360.778Z" fill="#263238"/>
<path d="M583.285 340.738C583.285 342.786 582.23 344.445 580.929 344.445C579.627 344.445 578.572 342.786 578.572 340.738C578.572 338.691 579.627 337.031 580.929 337.031C582.23 337.031 583.285 338.692 583.285 340.738Z" fill="#263238"/>
<path d="M611.059 340.662C611.059 342.709 610.004 344.369 608.703 344.369C607.401 344.369 606.346 342.709 606.346 340.662C606.346 338.614 607.401 336.955 608.703 336.955C610.006 336.955 611.059 338.616 611.059 340.662Z" fill="#263238"/>
<path d="M616.385 327.924C616.385 327.924 608.949 324.985 603.225 327.458L603.798 330.642C603.798 330.642 612.2 329.931 616.434 331.648C616.814 330.422 616.869 329.183 616.385 327.924Z" fill="#263238"/>
<path d="M573.064 327.924C573.064 327.924 580.5 324.985 586.224 327.458L585.652 330.642C585.652 330.642 577.249 329.931 573.015 331.648C572.637 330.422 572.581 329.183 573.064 327.924Z" fill="#263238"/>
<path d="M596.531 356.272C598.067 356.272 599.591 355.675 599.829 355.579C600.295 355.388 600.518 354.858 600.327 354.392C600.138 353.926 599.605 353.703 599.14 353.892C598.317 354.227 596.342 354.75 595.486 354.238C595.32 354.139 595.096 353.943 595.039 353.389C594.709 350.207 595.58 339.544 595.589 339.436C595.629 338.935 595.258 338.494 594.755 338.454C594.252 338.412 593.815 338.786 593.773 339.288C593.735 339.733 592.88 350.229 593.226 353.577C593.356 354.838 594.017 355.482 594.551 355.802C595.133 356.149 595.834 356.272 596.531 356.272Z" fill="#FB9E82"/>
<path d="M583.486 363.232C585 368.489 589.306 373.733 595.236 373.804C601.161 373.733 605.465 368.487 606.981 363.232H583.486Z" fill="white"/>
<path d="M561.387 329.963C561.393 330.311 561.402 330.667 561.409 331.032C561.432 331.964 561.469 332.919 561.506 333.888C561.528 334.381 561.552 334.874 561.582 335.365C561.613 335.865 561.635 336.364 561.674 336.872C561.674 336.894 561.674 336.955 561.682 337.04C561.712 337.487 561.75 337.934 561.78 338.397C562.069 342.147 562.523 346.08 563.227 349.997C563.242 350.079 563.257 350.171 563.272 350.255C563.385 350.891 563.515 351.528 563.643 352.164L566.78 349.823C566.582 347.792 564.969 334.487 565.22 333.23C566.106 328.827 571.38 324.123 570.161 319.879C568.949 315.621 567.138 310.136 570.441 309.378C573.738 308.614 587.329 308.492 595.793 308.764C604.196 309.037 616.28 307.407 621.137 311.212C625.993 314.999 612.052 322.599 622.811 325.904C626.213 326.949 625.039 344.695 624.584 348.839L627.509 350.309C627.578 349.983 627.646 349.649 627.706 349.31C627.722 349.227 627.737 349.143 627.752 349.051C629.131 341.71 629.837 332.624 630.191 325.298C630.191 325.222 630.198 325.154 630.198 325.085C630.608 316.493 625.455 308.59 617.416 305.506C605.823 301.051 588.222 297.52 571.547 306.976C565.387 310.469 561.522 316.941 561.387 324.017C561.356 325.826 561.349 327.826 561.387 329.963Z" fill="#263238"/>
<path d="M610.543 393.91C612.921 395.584 615.985 397.546 620.401 399.933C622.651 401.153 625.092 402.448 627.637 403.796C631.57 405.864 635.751 408.062 639.897 410.305L639.904 410.312C646.05 413.631 652.095 417.062 657.118 420.329C662.133 423.61 666.119 426.74 668.09 429.451C670.931 433.375 672.773 458.773 673.954 492.202C674 493.368 674.037 494.559 674.083 495.755C674.089 495.899 674.089 496.036 674.089 496.187C674.135 497.408 674.172 498.65 674.211 499.901C674.324 503.659 674.439 507.5 674.543 511.41C674.574 512.235 674.589 513.062 674.604 513.895C674.626 514.516 674.641 515.137 674.65 515.758C674.771 520.547 674.878 525.425 674.975 530.359C675.043 533.739 675.112 537.14 675.165 540.558C676.203 600.158 675.953 664.797 675.71 682.374C662.829 685.632 649.941 688.086 637.06 689.747H637.053C633.695 690.179 630.331 690.557 626.984 690.883C625.863 690.989 624.741 691.087 623.626 691.178C617.589 691.693 611.549 692.043 605.511 692.217C595.533 692.497 585.554 692.293 575.567 691.617C568.711 691.155 561.846 690.466 554.989 689.55C542.549 687.89 530.106 685.495 517.657 682.374C517.429 661.409 517.922 571.79 520.431 504.757C520.476 503.682 520.515 502.62 520.552 501.56C522.053 462.949 524.234 432.498 527.363 428.202C531.136 423.035 541.365 416.654 552.185 410.57C556.588 408.092 561.088 405.668 565.294 403.395C572.235 399.644 578.38 396.288 581.926 393.803C581.926 393.803 588.798 404.615 596.527 403.942C603.566 403.336 609.047 394.995 609.979 393.51L610.543 393.91Z" fill="#FD7C78"/>
<path d="M637.742 640.606H637.737C611.785 640.491 589.632 628.682 575.62 618.795C560.465 608.102 551.281 597.268 551.189 597.16C550.745 596.634 550.813 595.845 551.341 595.401C551.87 594.957 552.658 595.025 553.1 595.552C553.19 595.658 562.207 606.286 577.117 616.795C590.825 626.457 612.472 637.998 637.748 638.108C638.439 638.111 638.994 638.673 638.992 639.362C638.987 640.051 638.429 640.606 637.742 640.606Z" fill="#D64E5A"/>
<path d="M610.695 649.424C588.175 649.424 565.718 636.592 564.697 635.999C564.101 635.653 563.897 634.89 564.241 634.293C564.585 633.695 565.35 633.493 565.946 633.837C566.209 633.989 592.635 649.08 616.064 646.656C616.76 646.576 617.364 647.085 617.435 647.77C617.506 648.455 617.008 649.07 616.321 649.141C614.454 649.335 612.573 649.424 610.695 649.424Z" fill="#D64E5A"/>
<path d="M576.742 436.557C576.153 436.557 575.63 436.14 575.517 435.541C575.389 434.864 575.832 434.209 576.511 434.081C608.153 428.077 617.688 407.723 617.781 407.517C618.065 406.889 618.804 406.609 619.434 406.894C620.061 407.178 620.34 407.917 620.056 408.546C619.656 409.431 609.881 430.291 576.977 436.535C576.898 436.55 576.818 436.557 576.742 436.557Z" fill="#D64E5A"/>
<path d="M639.993 501.172H638.484C630.286 501.172 623.638 494.527 623.638 486.328V467.26H654.838V486.328C654.839 494.527 648.192 501.172 639.993 501.172Z" fill="#D64E5A"/>
<path d="M477.194 699.98C477.182 699.912 477.176 699.848 477.164 699.781C474.758 685.596 481.592 672.752 484.539 673.163C487.493 673.58 482.098 688.653 484.723 694.085C487.339 699.517 490.727 688.961 494.1 682.561C497.597 675.912 497.391 661.404 495.801 651.053C494.211 640.696 512.978 577.802 513.073 559.579L515.36 551.851L523.732 523.562L536.84 479.26C536.84 479.26 528.989 445.728 515.748 448.61C515.748 448.61 508.74 471.967 501.248 498.306C499.981 502.778 498.698 507.337 497.428 511.883C492.091 530.981 487.077 549.836 484.746 561.022C478.589 590.559 478.113 651.955 478.113 651.955C478.113 651.955 467.249 674.511 466.992 684.548C466.847 690.287 468.395 695.397 469.762 699.982H477.194V699.98Z" fill="#FDBEAB"/>
<path d="M497.427 511.879L515.358 551.848L523.731 523.558L501.247 498.304C499.979 502.776 498.696 507.335 497.427 511.879Z" fill="#FB9E82"/>
<path d="M496.539 499.976C504.405 513.465 512.403 526.881 520.372 540.319C522.996 531.529 525.716 523.091 528.266 515.335C528.273 515.313 528.282 515.298 528.288 515.276C529.308 512.175 530.304 509.184 531.258 506.324C531.273 506.272 531.288 506.221 531.31 506.177C531.639 505.173 531.961 504.184 532.292 503.215V503.208C536.097 491.706 539.044 482.564 539.887 477.235C542.159 462.889 536.84 437.434 528.947 430.197L528.049 429.514C527.539 429.21 527.343 428.754 526.771 429.343C524.08 432.108 517.578 441.424 514.212 449.943C513.78 451.029 513.341 452.158 512.885 453.308C508.012 465.834 502.052 482.132 496.539 499.976Z" fill="#FD7C78"/>
<path d="M519.173 548.246C521.768 537.52 525.03 525.601 528.263 515.33C528.27 515.308 528.278 515.293 528.285 515.271C529.283 512.097 530.278 509.084 531.254 506.319C531.269 506.269 531.283 506.216 531.305 506.172C531.605 505.3 531.914 504.457 532.213 503.635C532.257 503.488 532.285 503.35 532.285 503.21V503.203C532.285 502.712 531.978 502.251 531.487 502.067C530.849 501.839 530.145 502.162 529.917 502.8C526.604 511.832 522.689 524.837 519.332 537.593C519.276 541.127 519.224 544.684 519.173 548.246Z" fill="#D64E5A"/>
<path d="M663.977 503.208V503.215C663.977 503.352 664.007 503.489 664.052 503.639C664.356 504.457 664.658 505.298 664.961 506.169C664.984 506.215 664.999 506.267 665.015 506.321C665.992 509.086 666.985 512.094 667.984 515.269C667.991 515.293 667.999 515.308 668.006 515.33C670.475 523.194 672.975 532.036 675.166 540.56C675.114 537.144 675.045 533.741 674.977 530.361C672.121 520.065 669.03 510.124 666.348 502.796C666.12 502.16 665.416 501.843 664.78 502.069C664.287 502.253 663.977 502.715 663.977 503.208Z" fill="#D64E5A"/>
<path d="M723.092 531.2C716.156 516.393 668.544 430.278 668.544 430.278C659.564 435.624 674.763 520.334 674.763 520.334L693.652 568.555C697.98 579.941 711.463 584.733 722.018 578.653C722.197 578.55 722.38 578.444 722.562 578.336C740.77 567.521 723.092 531.2 723.092 531.2Z" fill="#FDBEAB"/>
<path d="M668.543 430.278L712.534 493.176C712.534 493.176 695.046 531.303 674.967 529.855C674.967 529.855 650.213 443.176 668.543 430.278Z" fill="#FD7C78"/>
<path d="M724.196 491.679L723.644 498.037L722.702 508.758L722.52 510.814L721.73 519.934L720.854 529.855L720.817 530.322L719.826 541.689L718.95 551.819L717.856 564.386H682.924L682.668 561.51L681.611 549.287L680.965 541.917L679.916 529.855L679.898 529.655L679.25 522.306L678.26 510.814L678.184 509.987L677.546 502.674L676.584 491.679H724.196Z" fill="#263238"/>
<path d="M722.52 510.814L721.73 519.934L720.854 529.855H679.916L679.898 529.655L679.25 522.306L678.26 510.814H722.52Z" fill="white"/>
<path d="M726.64 482.381H674.142V491.677H726.64V482.381Z" fill="#0C4339"/>
<path d="M722.683 482.381H678.097V476.981C678.097 475.604 679.214 474.486 680.591 474.486H720.189C721.566 474.486 722.683 475.604 722.683 476.981V482.381Z" fill="#263238"/>
<path d="M725.388 498.333C725.388 498.333 718.769 498.777 709.284 500.995C704.467 502.121 693.999 508.432 698.466 510.753C701.994 512.585 717.842 508.152 720.977 509.592C720.977 509.592 713.482 511.128 707.098 512.112C701.325 513.003 692.408 516.369 695.878 518.211C699.158 519.951 707.38 519.239 710.309 519.317C714.198 519.418 719.12 519.35 719.12 519.35C719.12 519.35 712.913 520.383 705.599 522.591C702.254 523.602 692.597 524.576 695.665 528.938C697.205 531.127 710.241 529.547 716.789 530.133C716.789 530.133 704.728 532.176 701.231 535.456C698.464 538.048 702.232 538.399 707.1 538.747C713.379 539.196 715.305 538.747 719.118 538.747C722.932 538.747 729.346 536.046 729.481 532.133C729.618 528.222 727.434 526.585 728.115 524.127C728.799 521.67 730.384 517.912 729.486 515.755C728.588 513.599 728.858 511.788 729.755 508.978C730.637 506.221 729.071 499.472 725.388 498.333Z" fill="#FDBEAB"/>
<path d="M599.306 342.1C599.306 335.838 604.4 330.743 610.663 330.743C616.925 330.743 622.02 335.838 622.02 342.1C622.02 348.363 616.925 353.457 610.663 353.457C604.402 353.457 599.306 348.363 599.306 342.1ZM601.077 342.1C601.077 347.387 605.376 351.688 610.663 351.688C615.95 351.688 620.249 347.387 620.249 342.1C620.249 336.813 615.948 332.514 610.663 332.514C605.376 332.512 601.077 336.813 601.077 342.1Z" fill="white"/>
<path d="M568.264 342.1C568.264 335.838 573.358 330.743 579.62 330.743C585.883 330.743 590.977 335.838 590.977 342.1C590.977 348.363 585.883 353.457 579.62 353.457C573.358 353.457 568.264 348.363 568.264 342.1ZM570.034 342.1C570.034 347.387 574.335 351.688 579.62 351.688C584.907 351.688 589.207 347.387 589.207 342.1C589.207 336.813 584.906 332.514 579.62 332.514C574.334 332.512 570.034 336.813 570.034 342.1Z" fill="white"/>
<path d="M630.983 333.515C630.983 333.027 630.59 332.625 630.103 332.622C623.942 332.566 619.682 336.725 619.476 336.928C619.13 337.272 619.128 337.833 619.472 338.18C619.645 338.354 619.872 338.44 620.1 338.44C620.325 338.44 620.551 338.354 620.723 338.184C620.767 338.14 624.644 334.381 630.081 334.403C630.578 334.404 630.983 334.011 630.983 333.515Z" fill="white"/>
<path d="M570.458 336.815C570.203 336.648 565.578 333.665 560.387 332.686C559.842 332.583 559.336 333.005 559.336 333.56C559.336 333.982 559.631 334.349 560.045 334.428C564.916 335.351 569.43 338.258 569.489 338.297C569.638 338.395 569.806 338.44 569.972 338.44C570.26 338.44 570.544 338.299 570.715 338.039C570.983 337.632 570.868 337.083 570.458 336.815Z" fill="white"/>
<path d="M590.353 339.548C590.373 339.521 592.476 336.676 595.241 336.676C597.979 336.676 599.88 339.516 599.898 339.544L601.38 338.575C601.283 338.425 598.946 334.906 595.241 334.906C591.561 334.906 589.023 338.364 588.916 338.513L590.353 339.548Z" fill="white"/>
<path d="M297.756 464.064L320.237 545.805L320.68 547.297C320.68 547.667 320.693 548.05 320.707 548.458C321.525 568.272 339.742 629.648 338.164 639.918C336.553 650.405 336.349 665.091 339.886 671.823C343.299 678.305 346.73 688.99 349.384 683.492C352.037 677.987 346.579 662.728 349.563 662.311C352.552 661.889 359.47 674.898 357.027 689.26C354.591 703.621 363.224 707.47 362.571 700.382C361.924 693.287 367.613 684.667 367.336 673.836C367.073 663.671 356.075 640.834 356.075 640.834C356.075 640.834 355.594 578.667 349.364 548.762C343.127 518.858 318.355 424.931 318.355 424.931C304.36 439.766 297.756 464.064 297.756 464.064Z" fill="#FDBEAB"/>
<path d="M320.251 545.852L320.679 547.295C320.679 547.653 320.691 548.023 320.705 548.419C325.051 546.926 329.226 545.661 332.303 545.081C332.992 544.952 333.459 544.282 333.324 543.587C333.196 542.878 332.526 542.419 331.83 542.565C328.703 543.158 324.56 544.383 320.251 545.852Z" fill="#FB9E82"/>
<path d="M326.785 699.641C325.921 694.084 325.077 688.495 324.258 682.96C323.715 679.251 323.184 675.575 322.66 671.946C320.674 658.06 318.9 644.931 317.477 634.036C316.934 629.898 316.448 626.076 316.004 622.668C314.625 611.792 313.813 605.037 313.813 605.037L252.721 607.346L191.441 605.037C191.441 605.037 189.861 618.404 187.333 637.784C186.87 641.312 186.377 645.032 185.859 648.916C184.498 659.086 182.944 670.318 181.271 681.819C181.246 681.987 181.22 682.156 181.195 682.325C180.67 685.909 180.14 689.518 179.59 693.127C179.583 693.176 179.578 693.219 179.564 693.27V693.277C179.245 695.402 178.921 697.526 178.595 699.644H326.785V699.641Z" fill="#263238"/>
<path d="M205.524 623.385C205.524 626.565 202.947 629.143 199.766 629.143C196.586 629.143 194.009 626.565 194.009 623.385C194.009 620.205 196.586 617.627 199.766 617.627C202.947 617.627 205.524 620.205 205.524 623.385Z" fill="#00C6A0"/>
<path d="M219.813 645.692C219.813 648.873 217.235 651.45 214.055 651.45C210.875 651.45 208.297 648.873 208.297 645.692C208.297 642.512 210.875 639.935 214.055 639.935C217.234 639.935 219.813 642.512 219.813 645.692Z" fill="#00C6A0"/>
<path d="M247.923 634.177C247.923 637.357 245.346 639.934 242.166 639.934C238.985 639.934 236.408 637.357 236.408 634.177C236.408 630.996 238.985 628.419 242.166 628.419C245.346 628.419 247.923 630.996 247.923 634.177Z" fill="#00C6A0"/>
<path d="M203.556 669.381C203.556 672.562 200.978 675.139 197.798 675.139C194.618 675.139 192.04 672.562 192.04 669.381C192.04 666.201 194.618 663.624 197.798 663.624C200.977 663.624 203.556 666.201 203.556 669.381Z" fill="#00C6A0"/>
<path d="M238.683 666.92C238.683 670.101 236.106 672.678 232.925 672.678C229.745 672.678 227.168 670.101 227.168 666.92C227.168 663.74 229.745 661.163 232.925 661.163C236.106 661.161 238.683 663.74 238.683 666.92Z" fill="#00C6A0"/>
<path d="M191.08 643.184C191.08 646.18 188.794 648.646 185.861 648.916C186.379 645.032 186.872 641.312 187.334 637.784C189.525 638.601 191.08 640.706 191.08 643.184Z" fill="#00C6A0"/>
<path d="M295.819 699.641C295.302 696.991 292.971 694.99 290.169 694.99C287.367 694.99 285.036 696.991 284.519 699.641H295.819Z" fill="#00C6A0"/>
<path d="M287.45 675.139C290.629 675.139 293.207 672.561 293.207 669.381C293.207 666.201 290.629 663.624 287.45 663.624C284.27 663.624 281.692 666.201 281.692 669.381C281.692 672.561 284.27 675.139 287.45 675.139Z" fill="#00C6A0"/>
<path d="M324.258 682.96C323.564 683.253 322.798 683.415 321.998 683.415C318.819 683.415 316.242 680.836 316.242 677.659C316.242 674.481 318.821 671.903 321.998 671.903C322.222 671.903 322.44 671.915 322.659 671.947C323.184 675.575 323.714 679.251 324.258 682.96Z" fill="#00C6A0"/>
<path d="M184.574 687.568C184.574 690.49 182.395 692.905 179.568 693.268C179.58 693.218 179.586 693.174 179.593 693.125C180.143 689.516 180.673 685.907 181.198 682.323C183.189 683.235 184.574 685.238 184.574 687.568Z" fill="#00C6A0"/>
<path d="M222.762 693.348C222.762 696.528 220.184 699.105 217.004 699.105C213.824 699.105 211.246 696.528 211.246 693.348C211.246 690.167 213.824 687.59 217.004 687.59C220.184 687.59 222.762 690.167 222.762 693.348Z" fill="#00C6A0"/>
<path d="M253.681 687.59C253.681 690.77 251.103 693.348 247.923 693.348C244.743 693.348 242.166 690.77 242.166 687.59C242.166 684.41 244.743 681.832 247.923 681.832C251.103 681.832 253.681 684.411 253.681 687.59Z" fill="#00C6A0"/>
<path d="M267.6 657.207C267.6 660.388 265.023 662.965 261.843 662.965C258.662 662.965 256.085 660.388 256.085 657.207C256.085 654.027 258.662 651.45 261.843 651.45C265.021 651.45 267.6 654.027 267.6 657.207Z" fill="#00C6A0"/>
<path d="M317.477 634.036C317.077 634.131 316.665 634.175 316.242 634.175C313.058 634.175 310.486 631.596 310.486 628.419C310.486 625.321 312.933 622.788 316.005 622.669C316.448 626.076 316.936 629.897 317.477 634.036Z" fill="#00C6A0"/>
<path d="M287.449 634.177C287.449 637.357 284.872 639.934 281.692 639.934C278.512 639.934 275.934 637.357 275.934 634.177C275.934 630.996 278.512 628.419 281.692 628.419C284.87 628.419 287.449 630.996 287.449 634.177Z" fill="#00C6A0"/>
<path d="M308.538 654.696C308.538 657.876 305.96 660.454 302.78 660.454C299.6 660.454 297.022 657.876 297.022 654.696C297.022 651.516 299.6 648.938 302.78 648.938C305.96 648.938 308.538 651.516 308.538 654.696Z" fill="#00C6A0"/>
<path d="M316.539 606.548C284.31 627.588 225.135 625.939 187.95 606.548C191.502 584.421 196.179 562.27 195.173 532.819C195.06 529.592 194.923 526.383 194.761 523.204C194.618 520.439 194.456 517.691 194.28 514.975C191.071 465.983 182.711 425.925 186.819 420.749C188.612 418.482 191.601 416.036 195.291 413.531C196.74 412.546 198.288 411.546 199.923 410.547C203.782 408.194 208.071 405.821 212.379 403.512C222.6 398.054 232.976 392.992 238.177 389.533C243.334 391.78 247.442 393.01 251.868 392.985C251.986 392.985 252.118 392.985 252.25 392.973C252.368 392.985 252.499 392.985 252.618 392.985C257.044 393.01 261.152 391.78 266.316 389.533C271.142 392.742 280.227 397.219 289.497 402.1C296.308 405.691 303.22 409.499 308.602 413.196C312.123 415.613 315.001 417.984 316.762 420.208C318.797 422.773 317.942 434.024 316.2 450.694C314.476 467.095 311.898 488.754 310.337 512.561C309.907 519.173 309.55 525.947 309.312 532.821C308.315 562.27 312.986 584.421 316.539 606.548Z" fill="#FD7C78"/>
<path d="M293.916 583.491H293.911C267.96 583.378 245.807 571.567 231.795 561.681C216.64 550.987 207.455 540.154 207.364 540.045C206.92 539.519 206.988 538.731 207.516 538.287C208.044 537.843 208.833 537.91 209.275 538.437C209.364 538.543 218.382 549.171 233.292 559.68C247 569.342 268.647 580.883 293.923 580.993C294.613 580.996 295.169 581.558 295.165 582.247C295.162 582.936 294.603 583.491 293.916 583.491Z" fill="#D64E5A"/>
<path d="M266.871 592.309C244.351 592.309 221.894 579.475 220.873 578.884C220.276 578.538 220.073 577.775 220.417 577.178C220.762 576.58 221.526 576.379 222.122 576.722C222.387 576.874 248.811 591.965 272.241 589.541C272.936 589.461 273.54 589.968 273.611 590.655C273.682 591.34 273.184 591.955 272.497 592.026C270.63 592.22 268.75 592.309 266.871 592.309Z" fill="#D64E5A"/>
<path d="M246.932 452.646C246.343 452.646 245.82 452.229 245.707 451.63C245.579 450.953 246.023 450.3 246.701 450.17C278.343 444.165 287.878 423.812 287.971 423.606C288.255 422.978 288.994 422.698 289.624 422.983C290.252 423.266 290.53 424.006 290.247 424.635C289.847 425.52 280.071 446.38 247.167 452.624C247.088 452.639 247.008 452.646 246.932 452.646Z" fill="#D64E5A"/>
<path d="M289.495 402.102C283.214 416.426 268.461 435.857 248.384 432.388C228.942 429.027 219.035 414.147 212.379 403.511C222.602 398.052 232.978 392.995 238.177 389.535C243.335 391.78 247.444 393.009 251.866 392.988C251.986 392.988 252.12 392.988 252.248 392.975C252.368 392.988 252.501 392.988 252.621 392.988C257.044 393.009 261.154 391.78 266.317 389.535C271.142 392.74 280.228 397.217 289.495 402.102Z" fill="#FDBEAB"/>
<path d="M252.62 393.49V393.508C252.499 393.508 252.369 393.508 252.248 393.498C252.369 393.498 252.501 393.49 252.62 393.49Z" fill="#263238"/>
<path d="M284.727 289.936C284.727 289.936 299.917 313.465 298.253 337.975C296.588 362.485 300.491 390.777 278.561 389.533C256.63 388.289 217.512 398.326 205.079 379.236C192.645 360.148 284.727 289.936 284.727 289.936Z" fill="#263238"/>
<path d="M220.333 333.036C220.333 333.036 214.28 324.965 209.78 331.64C205.278 338.314 211.641 358.025 222.662 353.214L220.333 333.036Z" fill="#FB9E82"/>
<path d="M220.255 347.122C219.848 347.122 219.475 346.854 219.359 346.442C217.651 340.357 211.346 337.889 211.284 337.865C210.804 337.683 210.561 337.144 210.745 336.665C210.927 336.186 211.464 335.943 211.944 336.123C212.239 336.235 219.187 338.93 221.153 345.939C221.292 346.433 221.003 346.948 220.508 347.087C220.422 347.11 220.338 347.122 220.255 347.122Z" fill="#FC7972"/>
<path d="M213.892 344.057C213.719 344.057 213.544 344.01 213.389 343.908C212.956 343.63 212.831 343.052 213.11 342.62C213.157 342.548 214.271 340.848 216.606 339.803C217.073 339.592 217.625 339.803 217.836 340.272C218.046 340.742 217.836 341.292 217.367 341.503C215.563 342.311 214.687 343.616 214.678 343.63C214.496 343.905 214.197 344.057 213.892 344.057Z" fill="#FC7972"/>
<path d="M282.715 333.036C282.715 333.036 288.768 324.965 293.268 331.64C297.768 338.314 291.406 358.025 280.385 353.214L282.715 333.036Z" fill="#FB9E82"/>
<path d="M282.792 347.122C283.199 347.122 283.574 346.854 283.689 346.442C285.397 340.357 291.702 337.889 291.764 337.865C292.243 337.683 292.485 337.144 292.304 336.665C292.122 336.186 291.585 335.943 291.106 336.123C290.812 336.235 283.863 338.93 281.896 345.939C281.758 346.433 282.046 346.948 282.541 347.087C282.625 347.11 282.71 347.122 282.792 347.122Z" fill="#FC7972"/>
<path d="M289.156 344.057C289.328 344.057 289.504 344.01 289.659 343.908C290.091 343.63 290.216 343.052 289.938 342.62C289.892 342.548 288.776 340.848 286.442 339.803C285.974 339.592 285.422 339.803 285.211 340.272C285.002 340.742 285.211 341.292 285.681 341.503C287.485 342.311 288.363 343.616 288.37 343.63C288.55 343.905 288.851 344.057 289.156 344.057Z" fill="#FC7972"/>
<path d="M266.424 369.932V389.535C266.424 389.535 260.578 399.518 252.672 400.198C244.774 400.887 237.755 391.603 237.755 391.603V371.311L266.424 369.932Z" fill="#FDBEAB"/>
<path d="M266.424 369.932V378.63C261.118 384.516 251.699 386.603 237.758 384.545L237.755 371.311L266.424 369.932Z" fill="#FB9E82"/>
<path d="M287.092 319.589C286.729 327.207 286.003 336.734 284.55 344.35C284.187 346.249 283.776 348.037 283.321 349.639C279.195 364.083 268.876 388.854 239.99 378.536C227.232 373.981 221.319 359.772 218.682 345.319C216.895 335.503 216.624 325.586 216.754 318.499C216.895 311.262 220.843 304.65 227.137 301.085C244.188 291.418 262.18 295.022 274.025 299.576C282.249 302.733 287.51 310.808 287.092 319.589Z" fill="#FDBEAB"/>
<path d="M238.801 334.187C238.801 336.28 237.723 337.975 236.393 337.975C235.062 337.975 233.984 336.278 233.984 334.187C233.984 332.094 235.062 330.397 236.393 330.397C237.724 330.397 238.801 332.094 238.801 334.187Z" fill="#263238"/>
<path d="M268.547 334.187C268.547 336.28 267.469 337.975 266.139 337.975C264.808 337.975 263.73 336.278 263.73 334.187C263.73 332.094 264.808 330.397 266.139 330.397C267.469 330.397 268.547 332.094 268.547 334.187Z" fill="#263238"/>
<path d="M231.622 322.906C233.624 322.341 237.664 321.375 241.928 321.363C243.048 321.36 243.908 322.358 243.71 323.461L243.705 323.488C243.546 324.37 242.758 324.994 241.863 324.952C238.963 324.817 231.349 325.224 227.755 326.682C227.681 326.058 228.051 325.372 228.574 324.765C229.365 323.845 230.453 323.237 231.622 322.906Z" fill="#263238"/>
<path d="M270.543 322.984C268.541 322.418 264.501 321.453 260.237 321.441C259.116 321.438 258.257 322.435 258.455 323.539L258.46 323.566C258.618 324.447 259.407 325.072 260.301 325.03C263.201 324.895 270.816 325.301 274.411 326.76C274.484 326.135 274.114 325.45 273.591 324.842C272.799 323.922 271.711 323.315 270.543 322.984Z" fill="#263238"/>
<path d="M251.848 351.474C251.136 351.474 250.42 351.347 249.822 350.991C249.277 350.665 248.602 350.005 248.469 348.717C248.114 345.294 248.99 334.565 249.027 334.111C249.069 333.6 249.518 333.216 250.032 333.259C250.543 333.301 250.926 333.751 250.884 334.263C250.876 334.373 249.984 345.274 250.322 348.525C250.381 349.09 250.611 349.291 250.779 349.392C251.654 349.916 253.673 349.381 254.515 349.04C254.991 348.844 255.535 349.075 255.729 349.549C255.923 350.025 255.695 350.569 255.219 350.763C254.976 350.863 253.418 351.474 251.848 351.474Z" fill="#FB9E82"/>
<path d="M240.022 357.353C240.726 360.896 243.065 367.412 250.948 367.412C258.851 367.412 261.066 361.457 261.827 357.353H240.022Z" fill="white"/>
<path d="M250.835 372.847C248.56 372.847 246.553 371.622 246.467 371.569C246.029 371.299 245.893 370.725 246.164 370.286C246.435 369.849 247.007 369.714 247.444 369.983C247.461 369.993 249.098 370.984 250.833 370.984C252.712 370.984 254.393 369.989 254.41 369.979C254.851 369.716 255.423 369.858 255.688 370.297C255.953 370.735 255.813 371.308 255.374 371.573C255.288 371.625 253.246 372.847 250.835 372.847Z" fill="#FB9E82"/>
<path d="M290.841 318.072C290.54 318.921 289.711 319.464 288.599 319.788C288.68 321.843 288.464 324.312 288.261 326.68C287.112 340.141 283.717 342.504 282.949 339.175C282.443 336.965 282.473 324.289 282.716 320.155C280.056 319.979 277.784 319.537 277.784 319.537L274.663 306.468L273.571 319.373C268.888 321.002 257.962 318.392 257.962 318.392L254.297 305.513L252.032 317.906C245.008 321.328 236.231 319.049 236.231 319.049L234.213 305.682L229.556 319.049C229.556 319.049 214.572 324.424 214.41 319.049C214.31 315.921 216.601 307.111 218.537 300.287C220.647 292.844 225.535 286.558 232.147 283.012C250.734 273.036 270.387 278.341 277.131 282.369C291.428 290.905 290.841 318.072 290.841 318.072Z" fill="#263238"/>
<path d="M223.093 290.93C223.093 290.93 210.327 305.601 206.269 331.805C202.211 358.01 196.591 377.369 212.381 386.022C229.47 395.387 232.763 379.44 232.515 374.219C232.269 369 212.961 351.472 222.662 311.287C225.794 298.313 223.093 290.93 223.093 290.93Z" fill="#263238"/>
<path d="M287.315 353.655C287.315 354.86 286.337 355.837 285.132 355.837C283.927 355.837 282.949 354.86 282.949 353.655C282.949 352.45 283.927 351.472 285.132 351.472C286.337 351.474 287.315 352.45 287.315 353.655Z" fill="white"/>
<path d="M194.28 514.975C191.071 465.982 182.711 425.925 186.819 420.749C188.612 418.482 191.601 416.036 195.291 413.531C199.051 431.157 208.541 484.201 194.28 514.975Z" fill="#FDBEAB"/>
<path d="M316.201 450.693C314.478 467.093 311.9 488.752 310.339 512.559C297.702 481.86 304.851 431.014 308.604 413.195C312.125 415.613 315.003 417.984 316.763 420.207C318.799 422.773 317.943 434.024 316.201 450.693Z" fill="#FDBEAB"/>
<path d="M201.27 472.934L187.056 518.593L171.491 561.999C168.987 571.086 158.956 575.763 150.387 571.851C150.237 571.783 150.088 571.716 149.938 571.648C135.133 564.646 143.296 535.611 143.296 535.611L146.091 535.393C147.231 532.206 150.305 524.095 154.217 513.908C154.69 512.656 155.185 511.366 155.688 510.063C156.52 507.897 157.382 505.662 158.258 503.368C159.511 500.129 160.801 496.787 162.104 493.419C171.7 468.53 179.649 441.52 179.649 441.52L186.274 421.852L201.27 472.934Z" fill="#FDBEAB"/>
<path d="M161.344 544.907C161.282 544.915 161.228 544.915 161.165 544.915C160.596 544.919 160.095 544.51 160.006 543.935C157.842 530.171 155.662 520.004 154.219 513.907C154.693 512.658 155.191 511.368 155.689 510.065C157.041 515.438 159.688 526.886 162.316 543.568C162.414 544.206 161.982 544.801 161.344 544.907Z" fill="#FB9E82"/>
<path d="M159.224 545.58C159.224 545.58 157.185 512.504 150.127 505.468C143.07 498.433 136.627 495.751 130.006 495.99C123.388 496.23 117.161 497.05 117.569 499.773C117.569 499.773 102.365 497.476 95.5762 501.415C88.7871 505.355 115.684 508.806 123.668 509.013C131.654 509.221 135.87 513.682 136.195 518.442C136.517 523.202 141.125 554.724 141.125 554.724L159.224 545.58Z" fill="#FDBEAB"/>
<path d="M167.277 501.911L66.4987 502.587C62.7092 502.612 59.6151 499.56 59.5898 495.77V495.711C59.5644 491.922 62.6163 488.828 66.4059 488.802L167.185 488.127C170.974 488.102 174.068 491.154 174.094 494.943V495.002C174.119 498.794 171.067 501.886 167.277 501.911Z" fill="#263238"/>
<path d="M59.659 502.632L37.5968 422.172C36.3578 417.653 39.7389 413.187 44.4265 413.156L91.7867 412.839C94.9821 412.817 97.801 414.924 98.6855 417.996L122.951 502.209L59.659 502.632Z" fill="#263238"/>
<path d="M98.6889 417.998L122.751 501.516L128.163 501.481L104.101 417.962C103.209 414.89 100.395 412.78 97.1984 412.802L91.7867 412.837C94.9821 412.815 97.7977 414.925 98.6889 417.998Z" fill="#00C6A0"/>
<path d="M86.8003 461.271C88.0663 466.58 84.7832 470.911 79.466 470.947C74.1488 470.982 68.813 466.708 67.547 461.399C66.281 456.091 69.5642 451.759 74.8814 451.724C80.1986 451.688 85.536 455.964 86.8003 461.271Z" fill="#3B73A9"/>
<path d="M749.087 711.843V713.013C749.087 719.753 743.621 725.22 736.876 725.22H103.542C96.7967 725.22 91.3343 719.753 91.3343 713.013V711.843C91.3343 705.103 96.7967 699.635 103.542 699.635H736.876C743.621 699.635 749.087 705.103 749.087 711.843Z" fill="#0C4339"/>
<path d="M749.087 711.843V712.427H91.3343V711.843C91.3343 705.103 96.7967 699.635 103.542 699.635H736.876C743.621 699.635 749.087 705.103 749.087 711.843Z" fill="#3B73A9"/>
</svg>
