<svg width="330" height="328" viewBox="0 0 330 328" fill="none" xmlns="http://www.w3.org/2000/svg">
<g filter="url(#filter0_d_14_1403)">
<path d="M28.656 89.5046C60.6734 24.9627 109.932 22.7855 172.849 31.5805C217.827 37.8676 229.689 21.8087 258.684 34.1651C312.278 57.0051 326.098 135.653 290.832 211.254C254.487 289.169 192.698 321.942 118.065 286.617C47.3553 253.148 -2.64106 152.595 28.656 89.5046Z" fill="#92E3A9"/>
<path opacity="0.7" d="M28.656 89.5046C60.6734 24.9627 109.932 22.7855 172.849 31.5805C217.827 37.8676 229.689 21.8087 258.684 34.1651C312.278 57.0051 326.098 135.653 290.832 211.254C254.487 289.169 192.698 321.942 118.065 286.617C47.3553 253.148 -2.64106 152.595 28.656 89.5046Z" fill="white"/>
<path opacity="0.1" d="M251.962 236.377L242.925 224.08C242.925 224.08 244.254 174.913 245.051 168.003C245.848 161.093 237.344 147.805 234.687 136.377C232.029 124.948 228.308 118.039 228.308 118.039C227.511 89.3354 224.853 92.7512 224.853 92.7512C212.323 90.2184 207.147 103.895 205.591 116.344V66.7146C205.591 58.2948 198.765 51.4685 190.345 51.4685H116.4C107.98 51.4685 101.154 58.2942 101.154 66.7146V93.7005C94.5991 92.1379 86.3808 91.9385 83.9962 97.5748C81.0724 104.484 85.8566 109.534 85.8566 109.534C85.8566 109.534 70.9739 103.687 68.0502 113.787C65.127 123.886 76.2889 133.188 76.2889 133.188C76.2889 133.188 72.8337 135.048 70.9733 145.413C69.1129 155.778 72.0367 158.702 74.4284 166.143C76.8202 173.585 83.1985 177.837 83.1985 177.837C83.1985 177.837 79.212 184.747 83.1985 195.378C86.3768 203.854 96.9824 215.532 101.154 219.921V247.273C101.154 255.692 107.98 262.518 116.4 262.518H138.352C160.912 280.533 197.213 293.845 197.213 293.845L201.048 297.642C225.602 290.01 247.22 273.025 265.09 248.156C256.857 240.864 251.962 236.377 251.962 236.377Z" fill="black"/>
<path d="M257.193 234.941L248.156 222.644C248.156 222.644 249.485 173.477 250.282 166.568C251.079 159.658 242.575 146.369 239.918 134.941C237.26 123.513 233.539 116.603 233.539 116.603C232.742 87.9001 230.084 91.3159 230.084 91.3159C211.48 87.5557 209.088 119.527 210.683 130.158C212.278 140.788 214.138 158.329 214.138 158.329C214.138 158.329 201.382 160.455 193.674 151.153C185.967 141.851 167.895 132.815 167.895 132.815C167.895 132.815 149.823 119.261 141.318 112.617C132.813 105.973 117.133 95.8738 110.489 93.4814C103.844 91.0896 92.151 89.2292 89.2272 96.1388C86.3034 103.048 91.0876 108.098 91.0876 108.098C91.0876 108.098 76.205 102.251 73.2812 112.351C70.358 122.45 81.5199 131.752 81.5199 131.752C81.5199 131.752 78.0647 133.612 76.2043 143.977C74.3439 154.342 77.267 157.266 79.6595 164.707C82.0512 172.148 88.4295 176.4 88.4295 176.4C88.4295 176.4 84.443 183.311 88.4295 193.941C92.416 204.572 108.096 220.252 108.096 220.252C108.096 220.252 116.069 234.869 137.331 255.599C158.593 276.329 202.444 292.408 202.444 292.408L206.279 296.206C230.833 288.573 252.451 271.588 270.321 246.719C262.088 239.429 257.193 234.941 257.193 234.941ZM144.64 153.28C142.048 154.874 118.129 132.151 118.129 132.151L97.9973 113.215C97.9973 113.215 112.947 124.577 118.528 129.56C124.109 134.543 147.231 151.685 144.64 153.28Z" fill="white"/>
<mask id="mask0_14_1403" style="mask-type:luminance" maskUnits="userSpaceOnUse" x="72" y="91" width="199" height="206">
<path d="M257.193 234.941L248.156 222.644C248.156 222.644 249.485 173.477 250.282 166.568C251.079 159.658 242.575 146.369 239.918 134.941C237.26 123.513 233.539 116.603 233.539 116.603C232.742 87.9001 230.084 91.3159 230.084 91.3159C211.48 87.5557 209.088 119.527 210.683 130.158C212.278 140.788 214.138 158.329 214.138 158.329C214.138 158.329 201.382 160.455 193.674 151.153C185.967 141.851 167.895 132.815 167.895 132.815C167.895 132.815 149.823 119.261 141.318 112.617C132.813 105.973 117.133 95.8738 110.489 93.4814C103.844 91.0896 92.151 89.2292 89.2272 96.1388C86.3034 103.048 91.0876 108.098 91.0876 108.098C91.0876 108.098 76.205 102.251 73.2812 112.351C70.358 122.45 81.5199 131.752 81.5199 131.752C81.5199 131.752 78.0647 133.612 76.2043 143.977C74.3439 154.342 77.267 157.266 79.6595 164.707C82.0512 172.148 88.4295 176.4 88.4295 176.4C88.4295 176.4 84.443 183.311 88.4295 193.941C92.416 204.572 108.096 220.252 108.096 220.252C108.096 220.252 116.069 234.869 137.331 255.599C158.593 276.329 202.444 292.408 202.444 292.408L206.279 296.206C230.833 288.573 252.451 271.588 270.321 246.719C262.088 239.429 257.193 234.941 257.193 234.941ZM144.64 153.28C142.048 154.874 118.129 132.151 118.129 132.151L97.9973 113.215C97.9973 113.215 112.947 124.577 118.528 129.56C124.109 134.543 147.231 151.685 144.64 153.28Z" fill="white"/>
</mask>
<g mask="url(#mask0_14_1403)">
<path opacity="0.2" d="M96.171 146.922C95.7387 146.13 94.5356 146.419 94.51 147.322C94.4247 150.319 93.9544 154.838 92.1012 158.337C89.2292 163.76 104.469 162.14 96.171 146.922Z" fill="black"/>
<path opacity="0.2" d="M220.561 147.662C219.401 141.569 214.965 139.829 214.603 128.805C214.566 127.665 214.436 126.794 214.241 126.127V71.0711C214.241 60.8598 205.963 52.5818 195.752 52.5818H128.293C118.082 52.5818 109.804 60.8598 109.804 71.0711V104.943H106.385C106.385 104.943 106.32 117.459 100.343 115.009C100.343 115.009 104.819 126.194 103.364 136.638C101.909 147.081 94.0108 136.935 94.0108 136.935C94.0108 136.935 93.8271 141.287 100.198 149.974C105.807 157.624 105.062 168.626 100.469 168.79C102.865 169.789 106.338 172.545 105.29 179.98C104.858 181.851 103.604 184.406 100.035 185.876C95.1227 187.898 102.221 190.182 105.173 190.995V220.187L109.804 220.795V245.141C109.804 255.353 118.082 263.631 128.293 263.631H195.752C205.963 263.631 214.241 255.353 214.241 245.141V162.525C214.241 160.07 215.267 157.743 217.038 156.043C219.036 154.124 221.224 151.141 220.561 147.662Z" fill="black"/>
<path opacity="0.2" d="M233.913 296.191C217.659 277.211 224.278 274.755 214.603 278.372C197.476 284.773 158.604 271.398 158.604 271.398C158.604 271.398 160.365 279.368 160.365 281.109C160.365 282.849 172.114 288.422 172.114 288.422L194.4 307.59L233.913 296.191Z" fill="black"/>
</g>
<path d="M221.407 266.849C222.139 265.357 222.864 263.778 223.573 262.111" stroke="#263238" stroke-linecap="round" stroke-linejoin="round"/>
<path d="M205.634 288.422C205.634 288.422 212.858 282.932 219.925 269.739" stroke="#263238" stroke-linecap="round" stroke-linejoin="round"/>
<path d="M92.1011 171.615C93.8041 169.542 96.3533 167.148 98.3955 168.229C98.3955 168.229 106.967 169.225 105.173 180.786L111.95 189.557C111.95 189.557 122.514 195.935 120.322 205.503" stroke="#263238" stroke-linecap="round" stroke-linejoin="round"/>
<path d="M90.2237 174.209C90.2237 174.209 90.5228 173.723 91.024 173.022" stroke="#263238" stroke-linecap="round" stroke-linejoin="round"/>
<path d="M94.4601 138.753C96.1218 145.025 97.7979 146.702 97.7979 146.702L106.568 158.661C106.568 158.661 111.95 158.661 125.504 173.013" stroke="#263238" stroke-linecap="round" stroke-linejoin="round"/>
<path d="M88.6014 131.14C90.8397 131.749 93.1698 133.291 94.0108 136.935" stroke="#263238" stroke-linecap="round" stroke-linejoin="round"/>
<path d="M83.646 130.955C83.646 130.955 84.8511 130.702 86.4524 130.797" stroke="#263238" stroke-linecap="round" stroke-linejoin="round"/>
<path d="M229.831 96.2799C229.93 95.8227 230.037 95.3556 230.15 94.8767" stroke="#263238" stroke-linecap="round" stroke-linejoin="round"/>
<path d="M231.346 115.009C231.346 115.009 226.813 112.045 229.487 97.9658" stroke="#263238" stroke-linecap="round" stroke-linejoin="round"/>
<path d="M218.283 153.703C203.878 173.483 191.883 220.366 216.78 248.332" stroke="#263238" stroke-linecap="round" stroke-linejoin="round"/>
<path d="M235.663 132.602C242.633 141.94 247.409 156.285 249.602 161.174" stroke="#263238" stroke-linecap="round" stroke-linejoin="round"/>
<path d="M270.321 246.72C262.089 239.43 257.193 234.942 257.193 234.942L248.156 222.645C248.156 222.645 249.485 173.478 250.282 166.568C251.079 159.659 242.575 146.37 239.918 134.942C237.26 123.514 233.539 116.604 233.539 116.604C232.742 87.9009 230.084 91.3166 230.084 91.3166C211.48 87.5565 209.088 119.528 210.683 130.158C212.278 140.789 214.138 158.33 214.138 158.33C214.138 158.33 201.382 160.456 193.674 151.154C185.967 141.852 167.895 132.816 167.895 132.816C167.895 132.816 149.823 119.262 141.318 112.618C132.813 105.974 117.133 95.8745 110.489 93.4821C103.844 91.0903 92.151 89.2299 89.2272 96.1396C86.3034 103.049 91.0876 108.099 91.0876 108.099C91.0876 108.099 76.205 102.252 73.2812 112.351C70.358 122.45 81.5199 131.752 81.5199 131.752C81.5199 131.752 78.0647 133.613 76.2043 143.978C74.3439 154.343 77.267 157.266 79.6595 164.707C82.0512 172.149 88.4295 176.401 88.4295 176.401C88.4295 176.401 84.443 183.311 88.4295 193.942C92.416 204.572 108.096 220.253 108.096 220.253C108.096 220.253 116.069 234.87 137.331 255.6C158.593 276.33 202.444 292.409 202.444 292.409L206.279 296.206" stroke="#263238" stroke-linecap="round" stroke-linejoin="round"/>
<path d="M94.4601 109.677C94.4601 109.677 99.2995 112.448 104.282 119.126" stroke="#263238" stroke-linecap="round" stroke-linejoin="round"/>
<path d="M196.168 261.083H119.604C111.907 261.083 105.667 254.843 105.667 247.146V63.9692C105.667 56.2723 111.907 50.0325 119.604 50.0325H196.168C203.865 50.0325 210.104 56.2717 210.104 63.9692V247.145C210.104 254.843 203.865 261.083 196.168 261.083Z" fill="#263238" stroke="#263238" stroke-linecap="round" stroke-linejoin="round"/>
<path d="M193.474 56.7776H185.189C183.997 56.7776 183.031 57.7439 183.031 58.9358C183.031 62.8469 179.86 66.0173 175.949 66.0173H144.03C140.119 66.0173 136.949 62.8469 136.949 58.9358C136.949 57.7439 135.982 56.7776 134.791 56.7776H122.299C116.84 56.7776 112.414 61.2036 112.414 66.6629V244.452C112.414 249.911 116.84 254.337 122.299 254.337H193.474C198.934 254.337 203.359 249.911 203.359 244.452V66.6629C203.359 61.2036 198.933 56.7776 193.474 56.7776Z" fill="#92E3A9" stroke="#263238" stroke-width="0.75" stroke-miterlimit="10" stroke-linecap="round" stroke-linejoin="round"/>
<path d="M109.265 208.775V212.878" stroke="#7F7F7F" stroke-linecap="round" stroke-linejoin="round"/>
<path d="M109.265 125.804V202.83" stroke="#7F7F7F" stroke-linecap="round" stroke-linejoin="round"/>
<path d="M109.265 72.759V116.069" stroke="#7F7F7F" stroke-linecap="round" stroke-linejoin="round"/>
<path d="M109.265 65.4033V69.1707" stroke="#7F7F7F" stroke-linecap="round" stroke-linejoin="round"/>
<path d="M206.352 99.6463V95.5437" stroke="#7F7F7F" stroke-linecap="round" stroke-linejoin="round"/>
<path d="M206.352 182.617V105.592" stroke="#7F7F7F" stroke-linecap="round" stroke-linejoin="round"/>
<path d="M206.352 235.663V192.352" stroke="#7F7F7F" stroke-linecap="round" stroke-linejoin="round"/>
<path d="M206.352 243.018V239.25" stroke="#7F7F7F" stroke-linecap="round" stroke-linejoin="round"/>
<path d="M170.429 59.3031C170.429 60.0752 169.803 60.7017 169.03 60.7017C168.258 60.7017 167.632 60.0759 167.632 59.3031C167.632 58.531 168.258 57.9045 169.03 57.9045C169.803 57.9052 170.429 58.531 170.429 59.3031Z" fill="#92E3A9" stroke="#263238" stroke-linecap="round" stroke-linejoin="round"/>
<path d="M162.141 57.9053C161.547 57.9053 153.81 57.9053 153.215 57.9053C152.443 57.9053 151.817 58.5311 151.817 59.3039C151.817 60.076 152.443 60.7025 153.215 60.7025C153.783 60.7025 161.574 60.7025 162.141 60.7025C162.913 60.7025 163.54 60.0766 163.54 59.3039C163.54 58.5311 162.914 57.9053 162.141 57.9053Z" fill="#92E3A9" stroke="#263238" stroke-linecap="round" stroke-linejoin="round"/>
<path d="M195.769 145.636H122.043C119.811 145.636 118.002 143.827 118.002 141.594V77.7609C118.002 75.5291 119.811 73.7192 122.043 73.7192H195.769C198.001 73.7192 199.811 75.5285 199.811 77.7609V141.594C199.811 143.826 198.002 145.636 195.769 145.636Z" fill="#263238" stroke="#263238" stroke-linecap="round" stroke-linejoin="round"/>
<path d="M194.334 144.201H120.608C118.376 144.201 116.567 142.391 116.567 140.159V76.3255C116.567 74.0938 118.376 72.2839 120.608 72.2839H194.334C196.566 72.2839 198.376 74.0932 198.376 76.3255V140.159C198.376 142.391 196.566 144.201 194.334 144.201Z" fill="#92E3A9"/>
<mask id="mask1_14_1403" style="mask-type:luminance" maskUnits="userSpaceOnUse" x="116" y="72" width="83" height="73">
<path d="M194.334 144.201H120.608C118.376 144.201 116.567 142.391 116.567 140.159V76.3255C116.567 74.0938 118.376 72.2839 120.608 72.2839H194.334C196.566 72.2839 198.376 74.0932 198.376 76.3255V140.159C198.376 142.391 196.566 144.201 194.334 144.201Z" fill="white"/>
</mask>
<g mask="url(#mask1_14_1403)">
<path opacity="0.7" d="M194.334 144.201H120.608C118.376 144.201 116.567 142.391 116.567 140.159V76.3255C116.567 74.0938 118.376 72.2839 120.608 72.2839H194.334C196.566 72.2839 198.376 74.0932 198.376 76.3255V140.159C198.376 142.391 196.566 144.201 194.334 144.201Z" fill="white"/>
</g>
<path d="M194.334 144.201H120.608C118.376 144.201 116.567 142.391 116.567 140.159V76.3255C116.567 74.0938 118.376 72.2839 120.608 72.2839H194.334C196.566 72.2839 198.376 74.0932 198.376 76.3255V140.159C198.376 142.391 196.566 144.201 194.334 144.201Z" stroke="#263238" stroke-linecap="round" stroke-linejoin="round"/>
<path d="M195.031 97.8796H119.904V140.372H195.031V97.8796Z" fill="#92E3A9"/>
<mask id="mask2_14_1403" style="mask-type:luminance" maskUnits="userSpaceOnUse" x="119" y="97" width="77" height="44">
<path d="M195.031 97.8796H119.904V140.372H195.031V97.8796Z" fill="white"/>
</mask>
<g mask="url(#mask2_14_1403)">
<path opacity="0.5" d="M113.7 148.343H199.576V135.382C199.576 135.382 195.031 124.368 190.725 124.368C185.867 124.368 182.353 134.225 182.353 134.225C182.353 134.225 175.56 125.796 170.839 125.796C166.118 125.796 140.98 134.225 140.98 134.225C140.98 134.225 133.552 126.218 128.149 126.029C122.055 125.815 119.904 134.949 113.7 148.343Z" fill="white"/>
</g>
<mask id="mask3_14_1403" style="mask-type:luminance" maskUnits="userSpaceOnUse" x="119" y="97" width="77" height="44">
<path d="M195.031 97.8796H119.904V140.372H195.031V97.8796Z" fill="white"/>
</mask>
<g mask="url(#mask3_14_1403)">
<path d="M157.937 121.807C158.778 122.76 160.326 122.19 160.326 122.19C159.622 122.735 159.536 123.765 159.536 123.765C160.462 124.316 161.782 123.554 161.782 123.554C161.224 124.602 161.648 125.665 161.648 125.665C162.971 125.619 163.658 123.92 163.658 123.92C163.225 125.175 164.054 125.973 164.054 125.973C165.099 125.922 165.619 124.36 165.619 124.36C165.846 125.89 166.539 126.38 166.539 126.38C167.847 125.699 167.849 123.92 167.849 123.92C167.942 125.27 168.919 125.823 168.919 125.823C169.355 125.35 169.558 124.843 169.638 124.377C170.018 124.534 170.471 124.489 170.842 124.399C171.013 124.479 171.167 124.531 171.285 124.564C170.678 125.571 170.788 126.223 170.788 126.223C172.195 126.666 173.454 125.41 173.454 125.41C172.566 126.431 172.866 127.512 172.866 127.512C174.223 127.457 174.957 126.571 175.275 126.048C174.703 127.382 175.559 128.496 175.559 128.496C177.216 127.644 177.425 125.916 177.425 125.916C177.425 125.916 177.444 127.096 178.452 127.644C179.272 127.003 179.261 125.577 179.261 125.577C179.829 126.767 180.452 126.969 180.452 126.969C181.162 126.349 180.969 124.678 180.969 124.678C181.345 125.689 182.145 125.815 182.145 125.815C183.097 124.763 182.496 123.33 182.496 123.33C183.324 124.148 184.158 123.914 184.158 123.914C184.689 123.019 183.664 121.713 183.664 121.713C184.731 122.167 185.776 121.578 185.776 121.578V119.152C185.515 118.183 183.978 117.804 183.978 117.804C185.22 117.652 185.866 116.635 185.866 116.635C185.136 115.613 183.26 115.647 183.26 115.647C184.344 115.461 185.012 114.344 185.012 114.344C183.746 113.313 181.822 114.209 181.822 114.209C183.257 113.397 183.485 111.917 183.485 111.917C182.121 111.334 180.429 112.816 180.429 112.816C180.429 112.816 181.486 111.311 181.126 110.323C181.126 110.323 180.504 110.313 179.728 111.096C179.641 110.959 179.47 110.754 179.143 110.546C179.125 110.388 179.095 110.234 179.047 110.091C179.472 109.961 180.033 109.694 180.401 109.148C180.401 109.148 180.072 108.344 178.293 108.344C178.293 108.344 179.889 108.064 180.401 106.904C179.675 106.332 178.261 106.555 178.261 106.555C179.183 106.364 179.691 105.538 179.691 105.538C178.896 105.188 177.817 105.315 177.817 105.315C179.056 104.902 179.405 104.076 179.405 104.076C178.103 103.631 177.054 104.108 177.054 104.108C178.42 103.155 178.389 102.043 178.389 102.043C177.054 101.82 175.974 102.805 175.974 102.805C176.863 101.343 176.546 100.517 176.546 100.517C175.625 100.454 174.672 101.947 174.672 101.947C175.085 100.041 174.354 99.3419 174.354 99.3419C173.401 99.7867 173.084 101.598 173.084 101.598C173.084 101.598 172.937 99.3544 171.558 98.802C171.558 98.802 170.673 100.009 171.114 101.598C171.114 101.598 170.387 99.6043 168.762 99.4377C168.762 99.4377 168.445 100.7 169.08 101.598C169.08 101.598 167.777 100.248 166.539 100.454C166.539 100.454 166.276 101.63 167.047 102.615C167.047 102.615 165.693 101.797 164.823 102.297C164.823 102.297 164.728 103.405 165.649 104.013C165.649 104.013 164.228 103.25 163.108 104.013C163.108 104.013 163.429 105.168 164.506 105.601C164.506 105.601 162.858 105.8 162.599 106.808C162.599 106.808 163.024 107.563 164.188 107.571C164.188 107.571 163.619 107.804 163.179 108.33C163.021 108.115 162.832 107.932 162.607 107.827C162.607 107.827 161.876 108.526 162.29 110.432C162.29 110.432 161.337 108.939 160.416 109.002C160.416 109.002 160.098 109.828 160.988 111.29C160.988 111.29 159.907 110.305 158.573 110.527C158.573 110.527 158.541 111.639 159.907 112.592C159.907 112.592 158.859 112.116 157.556 112.56C157.556 112.56 157.906 113.386 159.145 113.799C159.145 113.799 158.064 113.672 157.271 114.022C157.271 114.022 157.779 114.848 158.7 115.039C158.7 115.039 157.286 114.816 156.56 115.388C157.073 116.548 158.668 116.828 158.668 116.828C156.889 116.828 156.56 117.632 156.56 117.632C157.223 118.613 158.507 118.696 158.507 118.696C157.319 119.133 157.151 119.745 157.151 119.745L157.937 121.807Z" fill="#92E3A9"/>
<mask id="mask4_14_1403" style="mask-type:luminance" maskUnits="userSpaceOnUse" x="156" y="98" width="30" height="31">
<path d="M157.937 121.807C158.778 122.76 160.326 122.19 160.326 122.19C159.622 122.735 159.536 123.765 159.536 123.765C160.462 124.316 161.782 123.554 161.782 123.554C161.224 124.602 161.648 125.665 161.648 125.665C162.971 125.619 163.658 123.92 163.658 123.92C163.225 125.175 164.054 125.973 164.054 125.973C165.099 125.922 165.619 124.36 165.619 124.36C165.846 125.89 166.539 126.38 166.539 126.38C167.847 125.699 167.849 123.92 167.849 123.92C167.942 125.27 168.919 125.823 168.919 125.823C169.355 125.35 169.558 124.843 169.638 124.377C170.018 124.534 170.471 124.489 170.842 124.399C171.013 124.479 171.167 124.531 171.285 124.564C170.678 125.571 170.788 126.223 170.788 126.223C172.195 126.666 173.454 125.41 173.454 125.41C172.566 126.431 172.866 127.512 172.866 127.512C174.223 127.457 174.957 126.571 175.275 126.048C174.703 127.382 175.559 128.496 175.559 128.496C177.216 127.644 177.425 125.916 177.425 125.916C177.425 125.916 177.444 127.096 178.452 127.644C179.272 127.003 179.261 125.577 179.261 125.577C179.829 126.767 180.452 126.969 180.452 126.969C181.162 126.349 180.969 124.678 180.969 124.678C181.345 125.689 182.145 125.815 182.145 125.815C183.097 124.763 182.496 123.33 182.496 123.33C183.324 124.148 184.158 123.914 184.158 123.914C184.689 123.019 183.664 121.713 183.664 121.713C184.731 122.167 185.776 121.578 185.776 121.578V119.152C185.515 118.183 183.978 117.804 183.978 117.804C185.22 117.652 185.866 116.635 185.866 116.635C185.136 115.613 183.26 115.647 183.26 115.647C184.344 115.461 185.012 114.344 185.012 114.344C183.746 113.313 181.822 114.209 181.822 114.209C183.257 113.397 183.485 111.917 183.485 111.917C182.121 111.334 180.429 112.816 180.429 112.816C180.429 112.816 181.486 111.311 181.126 110.323C181.126 110.323 180.504 110.313 179.728 111.096C179.641 110.959 179.47 110.754 179.143 110.546C179.125 110.388 179.095 110.234 179.047 110.091C179.472 109.961 180.033 109.694 180.401 109.148C180.401 109.148 180.072 108.344 178.293 108.344C178.293 108.344 179.889 108.064 180.401 106.904C179.675 106.332 178.261 106.555 178.261 106.555C179.183 106.364 179.691 105.538 179.691 105.538C178.896 105.188 177.817 105.315 177.817 105.315C179.056 104.902 179.405 104.076 179.405 104.076C178.103 103.631 177.054 104.108 177.054 104.108C178.42 103.155 178.389 102.043 178.389 102.043C177.054 101.82 175.974 102.805 175.974 102.805C176.863 101.343 176.546 100.517 176.546 100.517C175.625 100.454 174.672 101.947 174.672 101.947C175.085 100.041 174.354 99.3419 174.354 99.3419C173.401 99.7867 173.084 101.598 173.084 101.598C173.084 101.598 172.937 99.3544 171.558 98.802C171.558 98.802 170.673 100.009 171.114 101.598C171.114 101.598 170.387 99.6043 168.762 99.4377C168.762 99.4377 168.445 100.7 169.08 101.598C169.08 101.598 167.777 100.248 166.539 100.454C166.539 100.454 166.276 101.63 167.047 102.615C167.047 102.615 165.693 101.797 164.823 102.297C164.823 102.297 164.728 103.405 165.649 104.013C165.649 104.013 164.228 103.25 163.108 104.013C163.108 104.013 163.429 105.168 164.506 105.601C164.506 105.601 162.858 105.8 162.599 106.808C162.599 106.808 163.024 107.563 164.188 107.571C164.188 107.571 163.619 107.804 163.179 108.33C163.021 108.115 162.832 107.932 162.607 107.827C162.607 107.827 161.876 108.526 162.29 110.432C162.29 110.432 161.337 108.939 160.416 109.002C160.416 109.002 160.098 109.828 160.988 111.29C160.988 111.29 159.907 110.305 158.573 110.527C158.573 110.527 158.541 111.639 159.907 112.592C159.907 112.592 158.859 112.116 157.556 112.56C157.556 112.56 157.906 113.386 159.145 113.799C159.145 113.799 158.064 113.672 157.271 114.022C157.271 114.022 157.779 114.848 158.7 115.039C158.7 115.039 157.286 114.816 156.56 115.388C157.073 116.548 158.668 116.828 158.668 116.828C156.889 116.828 156.56 117.632 156.56 117.632C157.223 118.613 158.507 118.696 158.507 118.696C157.319 119.133 157.151 119.745 157.151 119.745L157.937 121.807Z" fill="white"/>
</mask>
<g mask="url(#mask4_14_1403)">
<path opacity="0.2" d="M157.937 121.807C158.778 122.76 160.326 122.19 160.326 122.19C159.622 122.735 159.536 123.765 159.536 123.765C160.462 124.316 161.782 123.554 161.782 123.554C161.224 124.602 161.648 125.665 161.648 125.665C162.971 125.619 163.658 123.92 163.658 123.92C163.225 125.175 164.054 125.973 164.054 125.973C165.099 125.922 165.619 124.36 165.619 124.36C165.846 125.89 166.539 126.38 166.539 126.38C167.847 125.699 167.849 123.92 167.849 123.92C167.942 125.27 168.919 125.823 168.919 125.823C169.355 125.35 169.558 124.843 169.638 124.377C170.018 124.534 170.471 124.489 170.842 124.399C171.013 124.479 171.167 124.531 171.285 124.564C170.678 125.571 170.788 126.223 170.788 126.223C172.195 126.666 173.454 125.41 173.454 125.41C172.566 126.431 172.866 127.512 172.866 127.512C174.223 127.457 174.957 126.571 175.275 126.048C174.703 127.382 175.559 128.496 175.559 128.496C177.216 127.644 177.425 125.916 177.425 125.916C177.425 125.916 177.444 127.096 178.452 127.644C179.272 127.003 179.261 125.577 179.261 125.577C179.829 126.767 180.452 126.969 180.452 126.969C181.162 126.349 180.969 124.678 180.969 124.678C181.345 125.689 182.145 125.815 182.145 125.815C183.097 124.763 182.496 123.33 182.496 123.33C183.324 124.148 184.158 123.914 184.158 123.914C184.689 123.019 183.664 121.713 183.664 121.713C184.731 122.167 185.776 121.578 185.776 121.578V119.152C185.515 118.183 183.978 117.804 183.978 117.804C185.22 117.652 185.866 116.635 185.866 116.635C185.136 115.613 183.26 115.647 183.26 115.647C184.344 115.461 185.012 114.344 185.012 114.344C183.746 113.313 181.822 114.209 181.822 114.209C183.257 113.397 183.485 111.917 183.485 111.917C182.121 111.334 180.429 112.816 180.429 112.816C180.429 112.816 181.486 111.311 181.126 110.323C181.126 110.323 180.504 110.313 179.728 111.096C179.641 110.959 179.47 110.754 179.143 110.546C179.125 110.388 179.095 110.234 179.047 110.091C179.472 109.961 180.033 109.694 180.401 109.148C180.401 109.148 180.072 108.344 178.293 108.344C178.293 108.344 179.889 108.064 180.401 106.904C179.675 106.332 178.261 106.555 178.261 106.555C179.183 106.364 179.691 105.538 179.691 105.538C178.896 105.188 177.817 105.315 177.817 105.315C179.056 104.902 179.405 104.076 179.405 104.076C178.103 103.631 177.054 104.108 177.054 104.108C178.42 103.155 178.389 102.043 178.389 102.043C177.054 101.82 175.974 102.805 175.974 102.805C176.863 101.343 176.546 100.517 176.546 100.517C175.625 100.454 174.672 101.947 174.672 101.947C175.085 100.041 174.354 99.3419 174.354 99.3419C173.401 99.7867 173.084 101.598 173.084 101.598C173.084 101.598 172.937 99.3544 171.558 98.802C171.558 98.802 170.673 100.009 171.114 101.598C171.114 101.598 170.387 99.6043 168.762 99.4377C168.762 99.4377 168.445 100.7 169.08 101.598C169.08 101.598 167.777 100.248 166.539 100.454C166.539 100.454 166.276 101.63 167.047 102.615C167.047 102.615 165.693 101.797 164.823 102.297C164.823 102.297 164.728 103.405 165.649 104.013C165.649 104.013 164.228 103.25 163.108 104.013C163.108 104.013 163.429 105.168 164.506 105.601C164.506 105.601 162.858 105.8 162.599 106.808C162.599 106.808 163.024 107.563 164.188 107.571C164.188 107.571 163.619 107.804 163.179 108.33C163.021 108.115 162.832 107.932 162.607 107.827C162.607 107.827 161.876 108.526 162.29 110.432C162.29 110.432 161.337 108.939 160.416 109.002C160.416 109.002 160.098 109.828 160.988 111.29C160.988 111.29 159.907 110.305 158.573 110.527C158.573 110.527 158.541 111.639 159.907 112.592C159.907 112.592 158.859 112.116 157.556 112.56C157.556 112.56 157.906 113.386 159.145 113.799C159.145 113.799 158.064 113.672 157.271 114.022C157.271 114.022 157.779 114.848 158.7 115.039C158.7 115.039 157.286 114.816 156.56 115.388C157.073 116.548 158.668 116.828 158.668 116.828C156.889 116.828 156.56 117.632 156.56 117.632C157.223 118.613 158.507 118.696 158.507 118.696C157.319 119.133 157.151 119.745 157.151 119.745L157.937 121.807Z" fill="black"/>
</g>
<path d="M157.937 121.807C158.778 122.76 160.326 122.19 160.326 122.19C159.622 122.735 159.536 123.765 159.536 123.765C160.462 124.316 161.782 123.554 161.782 123.554C161.224 124.602 161.648 125.665 161.648 125.665C162.971 125.619 163.658 123.92 163.658 123.92C163.225 125.175 164.054 125.973 164.054 125.973C165.099 125.922 165.619 124.36 165.619 124.36C165.846 125.89 166.539 126.38 166.539 126.38C167.847 125.699 167.849 123.92 167.849 123.92C167.942 125.27 168.919 125.823 168.919 125.823C169.355 125.35 169.558 124.843 169.638 124.377C170.018 124.534 170.471 124.489 170.842 124.399C171.013 124.479 171.167 124.531 171.285 124.564C170.678 125.571 170.788 126.223 170.788 126.223C172.195 126.666 173.454 125.41 173.454 125.41C172.566 126.431 172.866 127.512 172.866 127.512C174.223 127.457 174.957 126.571 175.275 126.048C174.703 127.382 175.559 128.496 175.559 128.496C177.216 127.644 177.425 125.916 177.425 125.916C177.425 125.916 177.444 127.096 178.452 127.644C179.272 127.003 179.261 125.577 179.261 125.577C179.829 126.767 180.452 126.969 180.452 126.969C181.162 126.349 180.969 124.678 180.969 124.678C181.345 125.689 182.145 125.815 182.145 125.815C183.097 124.763 182.496 123.33 182.496 123.33C183.324 124.148 184.158 123.914 184.158 123.914C184.689 123.019 183.664 121.713 183.664 121.713C184.731 122.167 185.776 121.578 185.776 121.578V119.152C185.515 118.183 183.978 117.804 183.978 117.804C185.22 117.652 185.866 116.635 185.866 116.635C185.136 115.613 183.26 115.647 183.26 115.647C184.344 115.461 185.012 114.344 185.012 114.344C183.746 113.313 181.822 114.209 181.822 114.209C183.257 113.397 183.485 111.917 183.485 111.917C182.121 111.334 180.429 112.816 180.429 112.816C180.429 112.816 181.486 111.311 181.126 110.323C181.126 110.323 180.504 110.313 179.728 111.096C179.641 110.959 179.47 110.754 179.143 110.546C179.125 110.388 179.095 110.234 179.047 110.091C179.472 109.961 180.033 109.694 180.401 109.148C180.401 109.148 180.072 108.344 178.293 108.344C178.293 108.344 179.889 108.064 180.401 106.904C179.675 106.332 178.261 106.555 178.261 106.555C179.183 106.364 179.691 105.538 179.691 105.538C178.896 105.188 177.817 105.315 177.817 105.315C179.056 104.902 179.405 104.076 179.405 104.076C178.103 103.631 177.054 104.108 177.054 104.108C178.42 103.155 178.389 102.043 178.389 102.043C177.054 101.82 175.974 102.805 175.974 102.805C176.863 101.343 176.546 100.517 176.546 100.517C175.625 100.454 174.672 101.947 174.672 101.947C175.085 100.041 174.354 99.3419 174.354 99.3419C173.401 99.7867 173.084 101.598 173.084 101.598C173.084 101.598 172.937 99.3544 171.558 98.802C171.558 98.802 170.673 100.009 171.114 101.598C171.114 101.598 170.387 99.6043 168.762 99.4377C168.762 99.4377 168.445 100.7 169.08 101.598C169.08 101.598 167.777 100.248 166.539 100.454C166.539 100.454 166.276 101.63 167.047 102.615C167.047 102.615 165.693 101.797 164.823 102.297C164.823 102.297 164.728 103.405 165.649 104.013C165.649 104.013 164.228 103.25 163.108 104.013C163.108 104.013 163.429 105.168 164.506 105.601C164.506 105.601 162.858 105.8 162.599 106.808C162.599 106.808 163.024 107.563 164.188 107.571C164.188 107.571 163.619 107.804 163.179 108.33C163.021 108.115 162.832 107.932 162.607 107.827C162.607 107.827 161.876 108.526 162.29 110.432C162.29 110.432 161.337 108.939 160.416 109.002C160.416 109.002 160.098 109.828 160.988 111.29C160.988 111.29 159.907 110.305 158.573 110.527C158.573 110.527 158.541 111.639 159.907 112.592C159.907 112.592 158.859 112.116 157.556 112.56C157.556 112.56 157.906 113.386 159.145 113.799C159.145 113.799 158.064 113.672 157.271 114.022C157.271 114.022 157.779 114.848 158.7 115.039C158.7 115.039 157.286 114.816 156.56 115.388C157.073 116.548 158.668 116.828 158.668 116.828C156.889 116.828 156.56 117.632 156.56 117.632C157.223 118.613 158.507 118.696 158.507 118.696C157.319 119.133 157.151 119.745 157.151 119.745L157.937 121.807Z" stroke="#263238" stroke-width="0.5" stroke-miterlimit="10" stroke-linecap="round" stroke-linejoin="round"/>
<path d="M181.828 120.145C180.394 120.969 178.097 123.17 177.068 124.588C170.036 134.28 174.638 166.09 174.638 166.09H167.194C167.194 166.09 169.916 142.373 168.657 134.591C168.341 132.64 165.819 127.21 165.819 127.21L160.598 119.659L161.266 119.642L165.966 125.233L165.531 118.147L166.093 118.09C166.219 119.746 166.856 124.497 167.411 126.206C168.013 128.059 171.144 133.046 171.144 133.046C171.144 133.046 174.888 125.277 175.116 124.181C175.357 123.017 174.688 119.72 174.406 118.525H174.999L176.312 123.658L180.975 119.902L181.828 120.145Z" fill="#999999" stroke="#263238" stroke-width="0.5" stroke-miterlimit="10" stroke-linecap="round" stroke-linejoin="round"/>
</g>
<mask id="mask5_14_1403" style="mask-type:luminance" maskUnits="userSpaceOnUse" x="119" y="97" width="77" height="44">
<path d="M195.031 97.8796H119.904V140.372H195.031V97.8796Z" fill="white"/>
</mask>
<g mask="url(#mask5_14_1403)">
<path d="M136.444 106.313C136.431 106.694 136.34 107.062 136.109 107.317C135.486 108.004 134.242 108.346 134.242 108.346C133.247 108.584 132.471 108.769 132.471 108.769L130.231 111.841L128.148 109.913L130.593 106.839C130.593 106.839 131.571 104.48 132.266 103.761C132.794 103.216 133.539 103.56 133.539 103.56C133.539 103.56 134.874 102.799 134.716 103.674C134.716 103.674 136.616 100.854 137.065 101.25C137.952 102.034 135.461 103.997 135.874 104.456C136.287 104.914 138.884 103.13 139.318 103.816C139.753 104.501 136.477 105.56 136.477 105.56L136.444 106.313Z" fill="white" stroke="#263238" stroke-width="0.5" stroke-miterlimit="10" stroke-linecap="round" stroke-linejoin="round"/>
<path d="M134.471 104.075C134.471 104.075 133.075 105.581 133.417 104.202C133.417 104.202 133.178 104.86 132.864 104.926C132.55 104.993 132.614 104.35 132.614 104.35" stroke="#263238" stroke-width="0.5" stroke-miterlimit="10" stroke-linecap="round" stroke-linejoin="round"/>
<path d="M135.886 106.557C135.886 106.557 136.382 105.872 135.506 105.666C134.63 105.459 133.8 104.759 133.632 105.069C133.464 105.379 133.486 105.718 134.479 106.237C134.479 106.237 134.513 106.449 134.098 106.458C133.592 106.469 132.961 106.538 132.65 106.791" fill="white"/>
<path d="M135.886 106.557C135.886 106.557 136.382 105.872 135.506 105.666C134.63 105.459 133.8 104.759 133.632 105.069C133.464 105.379 133.486 105.718 134.479 106.237C134.479 106.237 134.513 106.449 134.098 106.458C133.592 106.469 132.961 106.538 132.65 106.791" stroke="#263238" stroke-width="0.5" stroke-miterlimit="10" stroke-linecap="round" stroke-linejoin="round"/>
<path d="M139.534 118.644L127.722 118.474C127.722 118.474 129.412 116.345 132.002 110.328C132.255 109.741 131.919 109.055 131.355 108.754L129.782 107.911C129.211 107.606 128.502 107.752 128.103 108.262C125.894 111.077 119.345 119.837 121.634 121.969C124.372 124.519 127.801 124.345 129.972 124.572C132.609 124.849 138.58 125.655 138.58 125.655L139.534 118.644Z" fill="#263238" stroke="#263238" stroke-miterlimit="10" stroke-linecap="round" stroke-linejoin="round"/>
<path d="M161.96 119.359L168.485 138.329L174.494 150.403C174.796 151.009 174.646 151.738 174.138 152.185C173.646 152.619 172.969 153.136 172.197 153.499C171.526 153.815 170.666 153.529 170.296 152.886C168.81 150.304 164.942 143.55 163.395 140.511C161.461 136.712 160.484 131.367 160.484 131.367C160.484 131.367 159.613 124.577 161.156 119.383C161.273 118.986 161.826 118.967 161.96 119.359Z" fill="#263238" stroke="#263238" stroke-miterlimit="10" stroke-linecap="round" stroke-linejoin="round"/>
<path d="M168.067 139.368C168.067 139.368 167.353 140.6 166.062 140.368" stroke="#7F7F7F" stroke-width="0.75" stroke-linecap="round" stroke-linejoin="round"/>
<path d="M151.239 100.327C151.239 100.327 143.382 97.1312 141.628 104.904C139.873 112.676 142.021 116.101 144.099 116.331C146.177 116.561 147.557 115.226 149.461 115.497C151.365 115.769 151.725 116.279 153.979 116.358C156.232 116.437 155.74 107.161 155.202 103.776C154.666 100.392 151.239 100.327 151.239 100.327Z" fill="#263238" stroke="#263238" stroke-width="0.75" stroke-miterlimit="10" stroke-linecap="round" stroke-linejoin="round"/>
<path d="M137.36 119.17L139.323 143.132L138.962 153.499C148.565 155.113 159.961 153.499 159.961 153.499L159.6 143.132L161.564 119.17C161.562 119.17 150.325 115.67 137.36 119.17Z" fill="#92E3A9" stroke="#263238" stroke-miterlimit="10" stroke-linecap="round" stroke-linejoin="round"/>
<path d="M137.36 119.17L139.323 143.132L138.962 153.499C148.565 155.113 159.961 153.499 159.961 153.499L159.6 143.132L161.564 119.17C161.562 119.17 150.325 115.67 137.36 119.17Z" fill="#92E3A9"/>
<mask id="mask6_14_1403" style="mask-type:luminance" maskUnits="userSpaceOnUse" x="137" y="117" width="25" height="38">
<path d="M137.36 119.17L139.323 143.132L138.962 153.499C148.565 155.113 159.961 153.499 159.961 153.499L159.6 143.132L161.564 119.17C161.562 119.17 150.325 115.67 137.36 119.17Z" fill="white"/>
</mask>
<g mask="url(#mask6_14_1403)">
<path opacity="0.7" d="M137.36 119.17L139.323 143.132L138.962 153.499C148.565 155.113 159.961 153.499 159.961 153.499L159.6 143.132L161.564 119.17C161.562 119.17 150.325 115.67 137.36 119.17Z" fill="white"/>
</g>
<mask id="mask7_14_1403" style="mask-type:luminance" maskUnits="userSpaceOnUse" x="137" y="117" width="25" height="38">
<path d="M137.36 119.17L139.323 143.132L138.962 153.499C148.565 155.113 159.961 153.499 159.961 153.499L159.6 143.132L161.564 119.17C161.562 119.17 150.325 115.67 137.36 119.17Z" fill="white"/>
</mask>
<g mask="url(#mask7_14_1403)">
<path d="M161.562 129.748H136.947V132.171H161.562V129.748Z" fill="#92E3A9"/>
</g>
<mask id="mask8_14_1403" style="mask-type:luminance" maskUnits="userSpaceOnUse" x="137" y="117" width="25" height="38">
<path d="M137.36 119.17L139.323 143.132L138.962 153.499C148.565 155.113 159.961 153.499 159.961 153.499L159.6 143.132L161.564 119.17C161.562 119.17 150.325 115.67 137.36 119.17Z" fill="white"/>
</mask>
<g mask="url(#mask8_14_1403)">
<path d="M161.562 124.461H136.947V126.885H161.562V124.461Z" fill="#92E3A9"/>
</g>
<mask id="mask9_14_1403" style="mask-type:luminance" maskUnits="userSpaceOnUse" x="137" y="117" width="25" height="38">
<path d="M137.36 119.17L139.323 143.132L138.962 153.499C148.565 155.113 159.961 153.499 159.961 153.499L159.6 143.132L161.564 119.17C161.562 119.17 150.325 115.67 137.36 119.17Z" fill="white"/>
</mask>
<g mask="url(#mask9_14_1403)">
<path d="M161.562 119.176H136.947V121.6H161.562V119.176Z" fill="#92E3A9"/>
</g>
<mask id="mask10_14_1403" style="mask-type:luminance" maskUnits="userSpaceOnUse" x="137" y="117" width="25" height="38">
<path d="M137.36 119.17L139.323 143.132L138.962 153.499C148.565 155.113 159.961 153.499 159.961 153.499L159.6 143.132L161.564 119.17C161.562 119.17 150.325 115.67 137.36 119.17Z" fill="white"/>
</mask>
<g mask="url(#mask10_14_1403)">
<path d="M161.562 134.704H136.947V137.128H161.562V134.704Z" fill="#92E3A9"/>
</g>
<mask id="mask11_14_1403" style="mask-type:luminance" maskUnits="userSpaceOnUse" x="137" y="117" width="25" height="38">
<path d="M137.36 119.17L139.323 143.132L138.962 153.499C148.565 155.113 159.961 153.499 159.961 153.499L159.6 143.132L161.564 119.17C161.562 119.17 150.325 115.67 137.36 119.17Z" fill="white"/>
</mask>
<g mask="url(#mask11_14_1403)">
<path d="M161.562 139.66H136.947V142.084H161.562V139.66Z" fill="#92E3A9"/>
</g>
<path d="M137.36 119.17L139.323 143.132L138.962 153.499C148.565 155.113 159.961 153.499 159.961 153.499L159.6 143.132L161.564 119.17C161.562 119.17 150.325 115.67 137.36 119.17Z" stroke="#263238" stroke-miterlimit="10" stroke-linecap="round" stroke-linejoin="round"/>
<path d="M146.11 117.671L146.333 113.977H151.539L151.759 117.6C151.776 117.883 152.005 118.107 152.288 118.124C152.832 118.157 153.357 118.198 153.86 118.245C153.013 119.151 151.418 120.391 149.017 120.391C146.655 120.391 145.005 119.219 144.099 118.34C144.605 118.281 145.103 118.234 145.594 118.195C145.873 118.173 146.092 117.951 146.11 117.671Z" fill="white"/>
<mask id="mask12_14_1403" style="mask-type:luminance" maskUnits="userSpaceOnUse" x="144" y="113" width="10" height="8">
<path d="M146.11 117.671L146.333 113.977H151.539L151.759 117.6C151.776 117.883 152.005 118.107 152.288 118.124C152.832 118.157 153.357 118.198 153.86 118.245C153.013 119.151 151.418 120.391 149.017 120.391C146.655 120.391 145.005 119.219 144.099 118.34C144.605 118.281 145.103 118.234 145.594 118.195C145.873 118.173 146.092 117.951 146.11 117.671Z" fill="white"/>
</mask>
<g mask="url(#mask12_14_1403)">
<path d="M153.082 112.729C152.482 114.847 150.819 116.988 148.857 116.988C146.895 116.988 145.232 114.847 144.632 112.729H153.082Z" fill="#263238" stroke="#263238" stroke-width="0.5" stroke-miterlimit="10" stroke-linecap="round" stroke-linejoin="round"/>
</g>
<path d="M146.11 117.671L146.333 113.977H151.539L151.759 117.6C151.776 117.883 152.005 118.107 152.288 118.124C152.832 118.157 153.357 118.198 153.86 118.245C153.013 119.151 151.418 120.391 149.017 120.391C146.655 120.391 145.005 119.219 144.099 118.34C144.605 118.281 145.103 118.234 145.594 118.195C145.873 118.173 146.092 117.951 146.11 117.671Z" stroke="#263238" stroke-width="0.5" stroke-miterlimit="10" stroke-linecap="round" stroke-linejoin="round"/>
<path d="M152.909 109.55C152.485 110.284 153.014 111.559 153.576 111.884C154.138 112.209 154.521 111.46 154.945 110.726C155.369 109.991 155.257 109.133 154.695 108.808C154.132 108.484 153.333 108.816 152.909 109.55Z" fill="white" stroke="#263238" stroke-miterlimit="10" stroke-linecap="round" stroke-linejoin="round"/>
<path d="M144.926 109.55C145.35 110.284 144.821 111.559 144.258 111.884C143.696 112.209 143.314 111.46 142.889 110.726C142.465 109.991 142.578 109.133 143.14 108.808C143.703 108.484 144.502 108.816 144.926 109.55Z" fill="white" stroke="#263238" stroke-miterlimit="10" stroke-linecap="round" stroke-linejoin="round"/>
<path d="M143.876 107.007V109.537C143.876 112.287 146.106 116.059 148.857 116.059C151.607 116.059 153.837 112.287 153.837 109.537V107.222" fill="white"/>
<path d="M143.876 107.007V109.537C143.876 112.287 146.106 116.059 148.857 116.059C151.607 116.059 153.837 112.287 153.837 109.537V107.222" stroke="#263238" stroke-width="0.75" stroke-miterlimit="10" stroke-linecap="round" stroke-linejoin="round"/>
<path d="M143.876 107.007C143.806 107.635 143.876 109.537 143.876 109.537C143.876 112.288 146.106 116.06 148.857 116.06C151.607 116.06 153.837 112.287 153.837 109.537C153.837 109.537 153.915 107.796 153.837 107.222C153.768 106.707 153.285 105.219 153.285 105.219C153.285 105.219 152.104 104.559 151.826 103.17C151.548 101.78 150.159 104.143 147.519 104.073C144.878 104.004 145.087 104.456 144.288 105.185C144.288 105.185 143.928 106.543 143.876 107.007Z" fill="white" stroke="#263238" stroke-width="0.75" stroke-miterlimit="10" stroke-linecap="round" stroke-linejoin="round"/>
<path d="M143.876 107.007C143.806 107.635 143.876 109.537 143.876 109.537C143.876 112.288 146.106 116.06 148.857 116.06C151.607 116.06 153.837 112.287 153.837 109.537C153.837 109.537 153.915 107.796 153.837 107.222C153.768 106.707 153.285 105.219 153.285 105.219C153.285 105.219 152.104 104.559 151.826 103.17C151.548 101.78 150.159 104.143 147.519 104.073C144.878 104.004 145.087 104.456 144.288 105.185C144.288 105.185 143.928 106.543 143.876 107.007Z" fill="white"/>
<path d="M143.876 107.007C143.806 107.635 143.876 109.537 143.876 109.537C143.876 112.288 146.106 116.06 148.857 116.06C151.607 116.06 153.837 112.287 153.837 109.537C153.837 109.537 153.915 107.796 153.837 107.222C153.768 106.707 153.285 105.219 153.285 105.219C153.285 105.219 152.104 104.559 151.826 103.17C151.548 101.78 150.159 104.143 147.519 104.073C144.878 104.004 145.087 104.456 144.288 105.185C144.288 105.185 143.928 106.543 143.876 107.007Z" stroke="#263238" stroke-miterlimit="10" stroke-linecap="round" stroke-linejoin="round"/>
<path d="M150.314 112.22C150.314 112.22 148.898 113.362 147.479 112.224" stroke="#263238" stroke-width="0.5" stroke-miterlimit="10" stroke-linecap="round" stroke-linejoin="round"/>
<path d="M149.54 106.609C149.54 106.609 149.055 108.331 149.746 109.519C149.958 109.885 149.848 110.35 149.48 110.558L149.056 110.799" stroke="#263238" stroke-width="0.5" stroke-miterlimit="10" stroke-linecap="round" stroke-linejoin="round"/>
<path d="M146.386 108.403C146.548 108.403 146.679 108.124 146.679 107.78C146.679 107.436 146.548 107.157 146.386 107.157C146.224 107.157 146.092 107.436 146.092 107.78C146.092 108.124 146.224 108.403 146.386 108.403Z" fill="#263238"/>
<path d="M152.658 105.845C152.658 105.845 151.426 105.177 150.684 106.076" stroke="#263238" stroke-width="0.5" stroke-miterlimit="10" stroke-linecap="round" stroke-linejoin="round"/>
<path d="M145.376 105.805C145.376 105.805 146.667 105.259 147.319 106.227" stroke="#263238" stroke-width="0.5" stroke-miterlimit="10" stroke-linecap="round" stroke-linejoin="round"/>
<path d="M152.623 155.174C151.52 155.221 150.585 154.363 150.543 153.259C150.385 149.072 150.067 139.435 150.355 136.239C150.775 131.574 153.704 117.802 153.704 117.802C157.073 118.093 159.596 118.653 160.791 118.959C161.238 119.073 161.536 119.49 161.499 119.949L159.599 143.133L160.537 152.943C160.622 153.831 159.975 154.62 159.087 154.708C157.954 154.819 156.318 154.964 154.5 155.077C153.905 155.113 153.278 155.147 152.623 155.174Z" fill="#263238" stroke="#263238" stroke-miterlimit="10" stroke-linecap="round" stroke-linejoin="round"/>
<path d="M144.106 117.905C144.106 117.905 147.549 131.576 148.044 136.239C148.38 139.398 147.923 148.874 147.692 153.131C147.628 154.319 146.628 155.24 145.439 155.2C143.597 155.137 141.628 155.007 139.788 154.782C138.811 154.663 138.112 153.781 138.223 152.803L139.323 143.132L137.431 120.04C137.389 119.537 137.716 119.072 138.205 118.95C140.233 118.448 142.212 118.115 144.106 117.905Z" fill="#263238" stroke="#263238" stroke-miterlimit="10" stroke-linecap="round" stroke-linejoin="round"/>
<path d="M152.279 107.369C152.279 107.369 151.542 107.093 151.035 107.553C151.035 107.553 151.979 107.615 152.164 107.906" stroke="#263238" stroke-width="0.5" stroke-miterlimit="10" stroke-linecap="round" stroke-linejoin="round"/>
</g>
<path d="M195.031 97.8796H119.904V140.372H195.031V97.8796Z" stroke="#263238" stroke-width="0.75" stroke-linecap="round" stroke-linejoin="round"/>
<path d="M133.286 93.499C137.982 91.5337 140.197 86.1331 138.232 81.4363C136.266 76.7395 130.866 74.5251 126.169 76.4904C121.472 78.4557 119.258 83.8563 121.223 88.5531C123.188 93.2499 128.589 95.4643 133.286 93.499Z" fill="white"/>
<mask id="mask13_14_1403" style="mask-type:luminance" maskUnits="userSpaceOnUse" x="120" y="75" width="19" height="20">
<path d="M133.286 93.499C137.982 91.5337 140.197 86.1331 138.232 81.4363C136.266 76.7395 130.866 74.5251 126.169 76.4904C121.472 78.4557 119.258 83.8563 121.223 88.5531C123.188 93.2499 128.589 95.4643 133.286 93.499Z" fill="white"/>
</mask>
<g mask="url(#mask13_14_1403)">
<path d="M133.643 87.3784H131.956V86.9933C133.188 86.0356 133.52 84.1364 133.52 82.234C133.52 79.5359 131.822 77.8638 129.727 77.8638C127.633 77.8638 125.934 79.5366 125.934 82.234C125.934 84.1364 126.266 86.0356 127.499 86.9933V87.3784H125.812C124.221 87.3784 122.873 88.5461 122.646 90.1198L122.013 94.4927H137.442L136.81 90.1198C136.581 88.5461 135.233 87.3784 133.643 87.3784Z" fill="#858585"/>
</g>
<path d="M133.286 93.499C137.982 91.5337 140.197 86.1331 138.232 81.4363C136.266 76.7395 130.866 74.5251 126.169 76.4904C121.472 78.4557 119.258 83.8563 121.223 88.5531C123.188 93.2499 128.589 95.4643 133.286 93.499Z" stroke="#263238" stroke-width="0.750001" stroke-linecap="round" stroke-linejoin="round"/>
<path d="M184.263 81.506H143.724C143.127 81.506 142.644 81.0225 142.644 80.4262V80.2228C142.644 79.6265 143.127 79.1431 143.724 79.1431H184.263C184.859 79.1431 185.343 79.6265 185.343 80.2228V80.4262C185.343 81.0225 184.859 81.506 184.263 81.506Z" fill="#263238" stroke="#263238" stroke-width="0.75" stroke-linecap="round" stroke-linejoin="round"/>
<path d="M174.832 86.1786H143.825C143.173 86.1786 142.644 85.6499 142.644 84.9971C142.644 84.3444 143.173 83.8157 143.825 83.8157H174.832C175.485 83.8157 176.014 84.3444 176.014 84.9971C176.014 85.6492 175.485 86.1786 174.832 86.1786Z" fill="#263238" stroke="#263238" stroke-width="0.75" stroke-linecap="round" stroke-linejoin="round"/>
<path d="M178.421 90.8507H143.826C143.173 90.8507 142.644 90.322 142.644 89.6692C142.644 89.0165 143.173 88.4878 143.826 88.4878H178.421C179.073 88.4878 179.602 89.0165 179.602 89.6692C179.602 90.322 179.073 90.8507 178.421 90.8507Z" fill="#263238" stroke="#263238" stroke-width="0.75" stroke-linecap="round" stroke-linejoin="round"/>
<path d="M195.769 175.644H122.043C119.811 175.644 118.002 173.835 118.002 171.602V153.615C118.002 151.383 119.811 149.573 122.043 149.573H195.769C198.001 149.573 199.811 151.382 199.811 153.615V171.602C199.811 173.834 198.002 175.644 195.769 175.644Z" fill="#263238" stroke="#263238" stroke-linecap="round" stroke-linejoin="round"/>
<path d="M194.334 174.209H120.608C118.376 174.209 116.567 172.399 116.567 170.167V152.18C116.567 149.948 118.376 148.138 120.608 148.138H194.334C196.566 148.138 198.376 149.947 198.376 152.18V170.167C198.376 172.399 196.566 174.209 194.334 174.209Z" fill="#92E3A9"/>
<mask id="mask14_14_1403" style="mask-type:luminance" maskUnits="userSpaceOnUse" x="116" y="148" width="83" height="27">
<path d="M194.334 174.209H120.608C118.376 174.209 116.567 172.399 116.567 170.167V152.18C116.567 149.948 118.376 148.138 120.608 148.138H194.334C196.566 148.138 198.376 149.947 198.376 152.18V170.167C198.376 172.399 196.566 174.209 194.334 174.209Z" fill="white"/>
</mask>
<g mask="url(#mask14_14_1403)">
<path opacity="0.7" d="M194.334 174.209H120.608C118.376 174.209 116.567 172.399 116.567 170.167V152.18C116.567 149.948 118.376 148.138 120.608 148.138H194.334C196.566 148.138 198.376 149.947 198.376 152.18V170.167C198.376 172.399 196.566 174.209 194.334 174.209Z" fill="white" stroke="#263238" stroke-linecap="round" stroke-linejoin="round"/>
</g>
<path d="M194.334 174.209H120.608C118.376 174.209 116.567 172.399 116.567 170.167V152.18C116.567 149.948 118.376 148.138 120.608 148.138H194.334C196.566 148.138 198.376 149.947 198.376 152.18V170.167C198.376 172.399 196.566 174.209 194.334 174.209Z" stroke="#263238" stroke-linecap="round" stroke-linejoin="round"/>
<path d="M133.287 169.675C137.984 167.709 140.198 162.309 138.233 157.612C136.267 152.915 130.867 150.701 126.17 152.666C121.473 154.631 119.259 160.032 121.224 164.729C123.189 169.426 128.59 171.64 133.287 169.675Z" fill="white"/>
<mask id="mask15_14_1403" style="mask-type:luminance" maskUnits="userSpaceOnUse" x="120" y="151" width="19" height="20">
<path d="M133.287 169.675C137.984 167.709 140.198 162.309 138.233 157.612C136.267 152.915 130.867 150.701 126.17 152.666C121.473 154.631 119.259 160.032 121.224 164.729C123.189 169.426 128.59 171.64 133.287 169.675Z" fill="white"/>
</mask>
<g mask="url(#mask15_14_1403)">
<path d="M133.643 164.093H131.956V163.707C133.188 162.75 133.52 160.851 133.52 158.948C133.52 156.25 131.822 154.578 129.727 154.578C127.633 154.578 125.934 156.251 125.934 158.948C125.934 160.851 126.266 162.75 127.499 163.707V164.093H125.812C124.221 164.093 122.873 165.26 122.646 166.834L122.013 171.207H137.442L136.81 166.834C136.581 165.26 135.233 164.093 133.643 164.093Z" fill="#858585"/>
</g>
<path d="M133.287 169.675C137.984 167.709 140.198 162.309 138.233 157.612C136.267 152.915 130.867 150.701 126.17 152.666C121.473 154.631 119.259 160.032 121.224 164.729C123.189 169.426 128.59 171.64 133.287 169.675Z" stroke="#263238" stroke-width="0.750001" stroke-linecap="round" stroke-linejoin="round"/>
<path d="M184.161 157.683H143.825C143.173 157.683 142.644 157.154 142.644 156.501C142.644 155.849 143.173 155.32 143.825 155.32H184.161C184.814 155.32 185.343 155.849 185.343 156.501C185.343 157.154 184.814 157.683 184.161 157.683Z" fill="#263238" stroke="#263238" stroke-width="0.75" stroke-linecap="round" stroke-linejoin="round"/>
<path d="M169.809 162.355H143.825C143.173 162.355 142.644 161.826 142.644 161.173C142.644 160.521 143.173 159.992 143.825 159.992H169.809C170.462 159.992 170.99 160.521 170.99 161.173C170.99 161.826 170.462 162.355 169.809 162.355Z" fill="#263238" stroke="#263238" stroke-width="0.75" stroke-linecap="round" stroke-linejoin="round"/>
<path d="M179.856 167.027H143.826C143.173 167.027 142.645 166.499 142.645 165.846C142.645 165.193 143.173 164.665 143.826 164.665H179.856C180.509 164.665 181.038 165.193 181.038 165.846C181.038 166.498 180.508 167.027 179.856 167.027Z" fill="#263238" stroke="#263238" stroke-width="0.75" stroke-linecap="round" stroke-linejoin="round"/>
<path d="M195.769 246.565H122.043C119.811 246.565 118.002 244.756 118.002 242.524V184.193C118.002 181.961 119.811 180.151 122.043 180.151H195.769C198.001 180.151 199.811 181.961 199.811 184.193V242.524C199.811 244.756 198.002 246.565 195.769 246.565Z" fill="#263238" stroke="#263238" stroke-linecap="round" stroke-linejoin="round"/>
<path d="M194.334 245.13H120.608C118.376 245.13 116.567 243.321 116.567 241.089V182.758C116.567 180.525 118.376 178.716 120.608 178.716H194.334C196.566 178.716 198.376 180.525 198.376 182.758V241.089C198.376 243.321 196.566 245.13 194.334 245.13Z" fill="#92E3A9"/>
<mask id="mask16_14_1403" style="mask-type:luminance" maskUnits="userSpaceOnUse" x="116" y="178" width="83" height="68">
<path d="M194.334 245.13H120.608C118.376 245.13 116.567 243.321 116.567 241.089V182.758C116.567 180.525 118.376 178.716 120.608 178.716H194.334C196.566 178.716 198.376 180.525 198.376 182.758V241.089C198.376 243.321 196.566 245.13 194.334 245.13Z" fill="white"/>
</mask>
<g mask="url(#mask16_14_1403)">
<path opacity="0.7" d="M194.334 245.13H120.608C118.376 245.13 116.567 243.321 116.567 241.089V182.758C116.567 180.525 118.376 178.716 120.608 178.716H194.334C196.566 178.716 198.376 180.525 198.376 182.758V241.089C198.376 243.321 196.566 245.13 194.334 245.13Z" fill="white"/>
</g>
<path d="M194.334 245.13H120.608C118.376 245.13 116.567 243.321 116.567 241.089V182.758C116.567 180.525 118.376 178.716 120.608 178.716H194.334C196.566 178.716 198.376 180.525 198.376 182.758V241.089C198.376 243.321 196.566 245.13 194.334 245.13Z" stroke="#263238" stroke-linecap="round" stroke-linejoin="round"/>
<path d="M195.031 205.945H119.904V241.747H195.031V205.945Z" fill="#BFBFBF"/>
<mask id="mask17_14_1403" style="mask-type:luminance" maskUnits="userSpaceOnUse" x="119" y="205" width="77" height="37">
<path d="M195.031 205.945H119.904V241.747H195.031V205.945Z" fill="white"/>
</mask>
<g mask="url(#mask17_14_1403)">
<path d="M164.966 222.31C163.739 221.64 163.176 222.198 162.731 221.64C162.286 221.083 163.303 219.526 160.604 218.169C159.31 217.518 160.385 215.041 155.799 214.928C151.213 214.816 151.956 217.573 150.724 218.35C149.492 219.128 149.159 217.9 147.927 218.683C146.695 219.465 147.258 221.035 146.251 221.254C145.244 221.474 144.393 220.766 143.161 221.523C141.929 222.281 141.929 222.99 141.372 222.99C140.814 222.99 139.695 222.545 139.025 222.99L139.005 223.003C138.556 223.302 138.767 224.002 139.307 224.002H164.904C165.61 224.002 165.954 223.142 165.444 222.653C165.32 222.534 165.163 222.417 164.966 222.31Z" fill="white" stroke="#263238" stroke-width="0.5" stroke-miterlimit="10" stroke-linecap="round" stroke-linejoin="round"/>
<path d="M148.231 221.851C148.072 221.938 147.91 222.016 147.742 222.085" stroke="#263238" stroke-width="0.5" stroke-miterlimit="10" stroke-linecap="round" stroke-linejoin="round"/>
<path d="M153.194 217.988C152.988 219.015 152.509 219.694 151.962 219.763C151.414 219.831 149.37 219.631 149.028 220.378C148.939 220.599 148.875 220.829 148.837 221.063" stroke="#263238" stroke-width="0.5" stroke-miterlimit="10" stroke-linecap="round" stroke-linejoin="round"/>
</g>
<mask id="mask18_14_1403" style="mask-type:luminance" maskUnits="userSpaceOnUse" x="119" y="205" width="77" height="37">
<path d="M195.031 205.945H119.904V241.747H195.031V205.945Z" fill="white"/>
</mask>
<g mask="url(#mask18_14_1403)">
<path d="M176.781 230.85C175.873 230.355 175.457 230.767 175.128 230.355C174.798 229.943 175.551 228.791 173.555 227.787C172.597 227.305 173.392 225.472 169.999 225.388C166.606 225.305 167.156 227.345 166.245 227.921C165.334 228.496 165.088 227.588 164.176 228.167C163.264 228.745 163.68 229.906 162.935 230.069C162.19 230.232 161.561 229.708 160.649 230.268C159.737 230.829 159.737 231.353 159.325 231.353C158.913 231.353 158.085 231.024 157.589 231.353L157.574 231.363C157.241 231.584 157.398 232.101 157.797 232.101H176.735C177.258 232.101 177.512 231.465 177.134 231.104C177.043 231.016 176.926 230.93 176.781 230.85Z" fill="white" stroke="#263238" stroke-width="0.5" stroke-miterlimit="10" stroke-linecap="round" stroke-linejoin="round"/>
<path d="M164.399 230.51C164.282 230.575 164.161 230.633 164.038 230.684" stroke="#263238" stroke-width="0.5" stroke-miterlimit="10" stroke-linecap="round" stroke-linejoin="round"/>
<path d="M168.071 227.653C167.919 228.413 167.565 228.915 167.159 228.966C166.754 229.017 165.242 228.869 164.989 229.422C164.923 229.585 164.876 229.755 164.848 229.929" stroke="#263238" stroke-width="0.5" stroke-miterlimit="10" stroke-linecap="round" stroke-linejoin="round"/>
</g>
<mask id="mask19_14_1403" style="mask-type:luminance" maskUnits="userSpaceOnUse" x="119" y="205" width="77" height="37">
<path d="M195.031 205.945H119.904V241.747H195.031V205.945Z" fill="white"/>
</mask>
<g mask="url(#mask19_14_1403)">
<path d="M198.376 235.629H113.108V248.4H198.376V235.629Z" fill="#92E3A9"/>
<mask id="mask20_14_1403" style="mask-type:luminance" maskUnits="userSpaceOnUse" x="113" y="235" width="86" height="14">
<path d="M198.376 235.629H113.108V248.4H198.376V235.629Z" fill="white"/>
</mask>
<g mask="url(#mask20_14_1403)">
<path opacity="0.5" d="M198.376 235.629H113.108V248.4H198.376V235.629Z" fill="white"/>
</g>
<path d="M198.376 235.629H113.108V248.4H198.376V235.629Z" stroke="#263238" stroke-width="0.5" stroke-miterlimit="10" stroke-linecap="round" stroke-linejoin="round"/>
</g>
<mask id="mask21_14_1403" style="mask-type:luminance" maskUnits="userSpaceOnUse" x="119" y="205" width="77" height="37">
<path d="M195.031 205.945H119.904V241.747H195.031V205.945Z" fill="white"/>
</mask>
<g mask="url(#mask21_14_1403)">
<path d="M134.468 211.836C135.163 214.457 133.602 217.146 130.981 217.841C128.36 218.536 125.672 216.975 124.976 214.354C124.281 211.733 125.842 209.045 128.463 208.349C131.084 207.654 133.773 209.215 134.468 211.836Z" fill="#92E3A9" stroke="#263238" stroke-width="0.5" stroke-miterlimit="10" stroke-linecap="round" stroke-linejoin="round"/>
<path d="M138.555 208.297C140.057 210.528 137.4 214.946 132.619 218.164C127.839 221.383 122.746 222.182 121.244 219.951C119.742 217.72 122.399 213.302 127.179 210.083C131.96 206.866 137.053 206.066 138.555 208.297Z" fill="#92E3A9"/>
<mask id="mask22_14_1403" style="mask-type:luminance" maskUnits="userSpaceOnUse" x="120" y="207" width="19" height="15">
<path d="M138.555 208.297C140.057 210.528 137.4 214.946 132.619 218.164C127.839 221.383 122.746 222.182 121.244 219.951C119.742 217.72 122.399 213.302 127.179 210.083C131.96 206.866 137.053 206.066 138.555 208.297Z" fill="white"/>
</mask>
<g mask="url(#mask22_14_1403)">
<path opacity="0.2" d="M138.344 210.412C139.342 211.893 136.811 215.342 132.691 218.116C128.571 220.889 124.423 221.936 123.426 220.455C122.429 218.973 124.959 215.524 129.079 212.751C133.199 209.978 137.347 208.931 138.344 210.412Z" fill="black"/>
</g>
<path d="M138.555 208.297C140.057 210.528 137.4 214.946 132.619 218.164C127.839 221.383 122.746 222.182 121.244 219.951C119.742 217.72 122.399 213.302 127.179 210.083C131.96 206.866 137.053 206.066 138.555 208.297Z" stroke="#263238" stroke-width="0.5" stroke-miterlimit="10" stroke-linecap="round" stroke-linejoin="round"/>
<path d="M140.458 210.876C140.458 210.876 139.914 208.757 139.411 208.064C139.029 207.538 138.722 207.964 138.722 207.964C138.722 207.964 137.683 207.158 137.71 207.919C137.71 207.919 136.605 207.535 136.74 208.235C136.74 208.235 136.188 208.136 135.995 208.428C135.801 208.719 136.357 209.957 136.357 209.957C136.146 209.652 135.335 209.074 134.971 209.393C134.595 209.722 135.276 209.957 135.722 210.615C136.168 211.273 137.181 211.712 137.181 211.712C137.997 212.034 139.033 212.285 139.033 212.285C139.033 212.285 142.37 216.784 144.996 218.699L142.503 222.198C142.503 222.198 141.449 222.773 140.747 224.028C140.044 225.283 142.153 229.298 142.153 229.298C142.153 229.298 149.414 220.333 149.414 218.489C149.414 216.399 140.458 210.876 140.458 210.876Z" fill="#999999" stroke="#263238" stroke-width="0.5" stroke-miterlimit="10" stroke-linecap="round" stroke-linejoin="round"/>
<path d="M136.991 210.075C136.991 210.075 137.921 209.793 138.748 210.521" stroke="#263238" stroke-width="0.5" stroke-miterlimit="10" stroke-linecap="round" stroke-linejoin="round"/>
<path d="M136.521 209.018C136.521 209.018 137.437 209.347 136.991 208.595C136.991 208.595 138.255 209.112 137.87 208.29C137.87 208.29 138.773 209.085 138.748 208.525C138.748 208.525 138.87 209.112 139.128 209.206C139.387 209.299 139.41 208.748 139.41 208.748" stroke="#263238" stroke-width="0.5" stroke-miterlimit="10" stroke-linecap="round" stroke-linejoin="round"/>
<path d="M131.596 224.547C131.596 224.547 137.143 225.645 137.328 224.547" stroke="#263238" stroke-width="0.75" stroke-miterlimit="10" stroke-linecap="round" stroke-linejoin="round"/>
<path d="M125.422 224.704C126.968 224.521 131.072 224.188 135.175 225.162C135.175 225.162 138.341 224.137 139.605 224.098C140.868 224.059 140.822 223.096 141.475 224.791C141.475 224.791 142.894 229.161 143.165 232.375C143.435 235.588 142.284 239.574 142.433 241.977C142.611 244.833 143.669 248.429 143.797 253.342C143.797 253.342 140.016 256.105 125.475 254.483C125.475 254.483 126.687 246.43 127.473 242.653C127.808 241.039 125.176 232.183 124.808 225.428C124.788 225.063 125.058 224.747 125.422 224.704Z" fill="#92E3A9"/>
<mask id="mask23_14_1403" style="mask-type:luminance" maskUnits="userSpaceOnUse" x="124" y="223" width="20" height="32">
<path d="M125.422 224.704C126.968 224.521 131.072 224.188 135.175 225.162C135.175 225.162 138.341 224.137 139.605 224.098C140.868 224.059 140.822 223.096 141.475 224.791C141.475 224.791 142.894 229.161 143.165 232.375C143.435 235.588 142.284 239.574 142.433 241.977C142.611 244.833 143.669 248.429 143.797 253.342C143.797 253.342 140.016 256.105 125.475 254.483C125.475 254.483 126.687 246.43 127.473 242.653C127.808 241.039 125.176 232.183 124.808 225.428C124.788 225.063 125.058 224.747 125.422 224.704Z" fill="white"/>
</mask>
<g mask="url(#mask23_14_1403)">
<path opacity="0.7" d="M144.462 231.206L124.97 233.214V231.608L144.462 229.6V231.206Z" fill="white"/>
</g>
<mask id="mask24_14_1403" style="mask-type:luminance" maskUnits="userSpaceOnUse" x="124" y="223" width="20" height="32">
<path d="M125.422 224.704C126.968 224.521 131.072 224.188 135.175 225.162C135.175 225.162 138.341 224.137 139.605 224.098C140.868 224.059 140.822 223.096 141.475 224.791C141.475 224.791 142.894 229.161 143.165 232.375C143.435 235.588 142.284 239.574 142.433 241.977C142.611 244.833 143.669 248.429 143.797 253.342C143.797 253.342 140.016 256.105 125.475 254.483C125.475 254.483 126.687 246.43 127.473 242.653C127.808 241.039 125.176 232.183 124.808 225.428C124.788 225.063 125.058 224.747 125.422 224.704Z" fill="white"/>
</mask>
<g mask="url(#mask24_14_1403)">
<path opacity="0.7" d="M144.861 236.126L125.369 238.133V236.527L144.861 234.519V236.126Z" fill="white"/>
</g>
<mask id="mask25_14_1403" style="mask-type:luminance" maskUnits="userSpaceOnUse" x="124" y="223" width="20" height="32">
<path d="M125.422 224.704C126.968 224.521 131.072 224.188 135.175 225.162C135.175 225.162 138.341 224.137 139.605 224.098C140.868 224.059 140.822 223.096 141.475 224.791C141.475 224.791 142.894 229.161 143.165 232.375C143.435 235.588 142.284 239.574 142.433 241.977C142.611 244.833 143.669 248.429 143.797 253.342C143.797 253.342 140.016 256.105 125.475 254.483C125.475 254.483 126.687 246.43 127.473 242.653C127.808 241.039 125.176 232.183 124.808 225.428C124.788 225.063 125.058 224.747 125.422 224.704Z" fill="white"/>
</mask>
<g mask="url(#mask25_14_1403)">
<path opacity="0.7" d="M144.608 240.552L125.116 242.56V240.954L144.608 238.946V240.552Z" fill="white"/>
</g>
<path d="M125.422 224.704C126.968 224.521 131.072 224.188 135.175 225.162C135.175 225.162 138.341 224.137 139.605 224.098C140.868 224.059 140.822 223.096 141.475 224.791C141.475 224.791 142.894 229.161 143.165 232.375C143.435 235.588 142.284 239.574 142.433 241.977C142.611 244.834 143.669 248.429 143.797 253.342C143.797 253.342 140.016 256.105 125.475 254.483C125.475 254.483 126.687 246.43 127.473 242.653C127.808 241.039 125.176 232.183 124.808 225.428C124.788 225.063 125.058 224.747 125.422 224.704Z" stroke="#263238" stroke-width="0.75" stroke-miterlimit="10" stroke-linecap="round" stroke-linejoin="round"/>
<path d="M132.967 210.426C132.967 210.426 135.476 209.188 136.179 210.66C136.882 212.132 137.183 214.14 138.839 214.943C140.495 215.746 138.839 217.384 138.839 217.384C138.839 217.384 139.09 216.22 137.885 215.782C136.681 215.345 138.538 218.745 136.63 219.781C134.723 220.816 128.348 224.562 127.043 219.953C127.043 219.953 125.939 220.816 126.591 221.72C126.591 221.72 124.181 221.612 125.236 219.081C126.29 216.549 124.879 213.638 127.416 211.831C129.955 210.024 132.967 210.426 132.967 210.426Z" fill="#263238" stroke="#263238" stroke-miterlimit="10" stroke-linecap="round" stroke-linejoin="round"/>
<path d="M138.068 224.351C137.517 224.479 136.939 224.635 136.444 224.778L134.853 220.719H130.734L131.174 224.573C130.637 224.536 130.115 224.513 129.618 224.504C130.435 225.6 132.915 228.632 135.461 228.796C137.938 228.957 138.103 225.689 138.068 224.351Z" fill="#999999" stroke="#263238" stroke-width="0.75" stroke-miterlimit="10" stroke-linecap="round" stroke-linejoin="round"/>
<path d="M128.951 217.142C128.951 217.142 128.262 216.139 127.567 217.202C126.872 218.264 128.785 220.481 129.382 219.554C129.382 219.554 130.098 221.038 131.324 221.519C132.549 222 136.216 222.767 136.863 221.416C137.509 220.066 136.838 217.114 136.481 216.213C136.124 215.312 135.811 213.155 135.294 212.738C134.777 212.321 134.911 212.916 133.777 213.07C132.642 213.224 130.329 212.88 129.791 213.25C129.254 213.62 129.846 214.913 129.687 215.621C129.527 216.33 129.324 217.478 128.951 217.142Z" fill="#999999" stroke="#263238" stroke-miterlimit="10" stroke-linecap="round" stroke-linejoin="round"/>
<path d="M134.609 215.782L135.551 216.552C135.85 216.797 135.909 217.233 135.674 217.539C135.511 217.752 135.366 217.981 135.366 218.127" stroke="#263238" stroke-width="0.5" stroke-miterlimit="10" stroke-linecap="round" stroke-linejoin="round"/>
<path d="M133.51 215.651C133.561 215.897 133.495 216.117 133.365 216.143C133.234 216.17 133.087 215.993 133.037 215.748C132.986 215.503 133.052 215.283 133.182 215.256C133.313 215.23 133.46 215.406 133.51 215.651Z" fill="#263238"/>
<path d="M135.697 215.202C135.748 215.447 135.682 215.668 135.552 215.695C135.421 215.722 135.274 215.544 135.224 215.3C135.173 215.055 135.239 214.834 135.369 214.807C135.5 214.78 135.647 214.957 135.697 215.202Z" fill="#263238"/>
<path d="M131.854 214.576C131.854 214.576 132.8 213.746 133.656 214.488" stroke="#263238" stroke-width="0.5" stroke-miterlimit="10" stroke-linecap="round" stroke-linejoin="round"/>
<path d="M134.609 214.377C134.609 214.377 135.051 213.462 135.62 214.179" stroke="#263238" stroke-width="0.5" stroke-miterlimit="10" stroke-linecap="round" stroke-linejoin="round"/>
<path d="M135.169 219.365C135.169 219.365 134.119 220.152 133.649 219.56" stroke="#263238" stroke-width="0.5" stroke-miterlimit="10" stroke-linecap="round" stroke-linejoin="round"/>
<path d="M135.357 219.573C135.357 219.573 135.974 220.516 134.259 220.303" stroke="#263238" stroke-width="0.5" stroke-miterlimit="10" stroke-linecap="round" stroke-linejoin="round"/>
<path d="M135.145 219.08C135.145 219.08 135.278 218.666 134.752 218.796C134.226 218.925 134.301 219.52 133.966 219.364" stroke="#263238" stroke-width="0.5" stroke-miterlimit="10" stroke-linecap="round" stroke-linejoin="round"/>
<path d="M126.109 234.496C126.109 234.496 124.651 240.945 123.748 242.919C122.844 244.893 117.045 251.374 117.045 251.374C117.045 251.374 116.501 253.493 115.998 254.186C115.617 254.712 115.31 254.286 115.31 254.286C115.31 254.286 114.27 255.092 114.297 254.331C114.297 254.331 113.193 254.715 113.327 254.015C113.327 254.015 112.776 254.114 112.582 253.822C112.388 253.53 112.944 252.293 112.944 252.293C112.733 252.598 111.923 253.175 111.558 252.856C111.182 252.528 111.863 252.293 112.31 251.635C112.756 250.977 113.769 250.537 113.769 250.537C114.585 250.215 115.219 249.965 115.219 249.965L120.264 241.245C120.264 241.245 122.602 227.409 124.824 225.045C125.064 224.789 125.493 224.905 125.581 225.244C125.884 226.41 126.481 229.469 126.109 234.496Z" fill="#999999" stroke="#263238" stroke-width="0.5" stroke-miterlimit="10" stroke-linecap="round" stroke-linejoin="round"/>
<path d="M135.996 228.424C136.813 228.327 137.553 228.91 137.65 229.727C137.747 230.544 137.164 231.285 136.348 231.382C135.531 231.479 135.189 230.848 135.092 230.031C134.994 229.215 135.179 228.521 135.996 228.424Z" fill="#263238" stroke="#263238" stroke-miterlimit="10" stroke-linecap="round" stroke-linejoin="round"/>
<path d="M136.499 232.661C137.316 232.564 138.056 233.148 138.153 233.964C138.251 234.781 137.667 235.522 136.851 235.619C136.034 235.716 135.692 235.085 135.595 234.268C135.498 233.451 135.682 232.758 136.499 232.661Z" fill="#263238" stroke="#263238" stroke-miterlimit="10" stroke-linecap="round" stroke-linejoin="round"/>
<path d="M136.378 232.633C136.047 232.673 135.748 232.437 135.709 232.107C135.669 231.776 135.905 231.477 136.235 231.438" stroke="#263238" stroke-miterlimit="10" stroke-linecap="round" stroke-linejoin="round"/>
</g>
<mask id="mask26_14_1403" style="mask-type:luminance" maskUnits="userSpaceOnUse" x="119" y="205" width="77" height="37">
<path d="M195.031 205.945H119.904V241.747H195.031V205.945Z" fill="white"/>
</mask>
<g mask="url(#mask26_14_1403)">
<path d="M177.859 241.747H183.845C183.698 237.696 183.041 229.303 179.463 216.161L175.992 216.758C175.992 216.758 179.243 230.402 177.859 241.747Z" fill="#92E3A9" stroke="#263238" stroke-width="0.5" stroke-miterlimit="10" stroke-linecap="round" stroke-linejoin="round"/>
<path d="M177.871 238.846C178.116 238.814 178.377 238.789 178.648 238.77C180.134 238.668 181.354 238.814 181.373 239.096C181.393 239.378 180.204 239.69 178.718 239.792C178.418 239.813 178.13 239.823 177.859 239.824C177.865 239.5 177.869 239.173 177.871 238.846Z" fill="#999999" stroke="#263238" stroke-width="0.5" stroke-miterlimit="10" stroke-linecap="round" stroke-linejoin="round"/>
<path d="M180.512 232.367C180.494 232.102 181.538 231.811 182.893 231.692C182.949 232.036 183.002 232.373 183.053 232.704C181.652 232.782 180.531 232.638 180.512 232.367Z" fill="#999999" stroke="#263238" stroke-width="0.5" stroke-miterlimit="10" stroke-linecap="round" stroke-linejoin="round"/>
<path d="M180.816 223.629C179.629 223.806 178.643 223.792 178.614 223.596C178.585 223.401 179.523 223.098 180.71 222.921C180.86 222.899 181.007 222.879 181.149 222.864C181.202 223.093 181.253 223.321 181.305 223.546C181.148 223.576 180.984 223.604 180.816 223.629Z" fill="#999999" stroke="#263238" stroke-width="0.5" stroke-miterlimit="10" stroke-linecap="round" stroke-linejoin="round"/>
<path d="M180.002 229.652C180.021 229.921 178.944 230.217 177.558 230.333C177.533 229.99 177.508 229.651 177.481 229.315C178.873 229.239 179.984 229.383 180.002 229.652Z" fill="#999999" stroke="#263238" stroke-width="0.5" stroke-miterlimit="10" stroke-linecap="round" stroke-linejoin="round"/>
<path d="M189.667 211.181C189.667 211.181 192.539 211.981 194.406 213.3C194.406 213.3 193.099 213.756 186.33 212.291C186.33 212.291 190.522 214.355 190.327 214.98C190.133 215.606 184.266 213.497 184.266 213.497C184.266 213.497 187.455 215.462 187.115 216.012C186.776 216.563 182.484 214.529 182.484 214.529C182.484 214.529 185.183 216.549 184.8 217.076C184.416 217.604 180.833 215.544 180.833 215.544C180.833 215.544 182.88 217.622 182.635 217.996C182.39 218.371 179.162 216.131 179.162 216.131C179.162 216.131 180.078 213.174 183.097 211.448C183.097 211.449 186.046 209.866 189.667 211.181Z" fill="#92E3A9"/>
<mask id="mask27_14_1403" style="mask-type:luminance" maskUnits="userSpaceOnUse" x="179" y="210" width="16" height="9">
<path d="M189.667 211.181C189.667 211.181 192.539 211.981 194.406 213.3C194.406 213.3 193.099 213.756 186.33 212.291C186.33 212.291 190.522 214.355 190.327 214.98C190.133 215.606 184.266 213.497 184.266 213.497C184.266 213.497 187.455 215.462 187.115 216.012C186.776 216.563 182.484 214.529 182.484 214.529C182.484 214.529 185.183 216.549 184.8 217.076C184.416 217.604 180.833 215.544 180.833 215.544C180.833 215.544 182.88 217.622 182.635 217.996C182.39 218.371 179.162 216.131 179.162 216.131C179.162 216.131 180.078 213.174 183.097 211.448C183.097 211.449 186.046 209.866 189.667 211.181Z" fill="white"/>
</mask>
<g mask="url(#mask27_14_1403)">
<path opacity="0.3" d="M189.667 211.181C189.667 211.181 192.539 211.981 194.406 213.3C194.406 213.3 193.099 213.756 186.33 212.291C186.33 212.291 190.522 214.355 190.327 214.98C190.133 215.606 184.266 213.497 184.266 213.497C184.266 213.497 187.455 215.462 187.115 216.012C186.776 216.563 182.484 214.529 182.484 214.529C182.484 214.529 185.183 216.549 184.8 217.076C184.416 217.604 180.833 215.544 180.833 215.544C180.833 215.544 182.88 217.622 182.635 217.996C182.39 218.371 179.162 216.131 179.162 216.131C179.162 216.131 180.078 213.174 183.097 211.448C183.097 211.448 186.046 209.866 189.667 211.181Z" fill="black" stroke="#263238" stroke-width="0.5" stroke-miterlimit="10"/>
</g>
<path d="M189.667 211.181C189.667 211.181 192.539 211.981 194.406 213.3C194.406 213.3 193.099 213.756 186.33 212.291C186.33 212.291 190.522 214.355 190.327 214.98C190.133 215.606 184.266 213.497 184.266 213.497C184.266 213.497 187.455 215.462 187.115 216.012C186.776 216.563 182.484 214.529 182.484 214.529C182.484 214.529 185.183 216.549 184.8 217.076C184.416 217.604 180.833 215.544 180.833 215.544C180.833 215.544 182.88 217.622 182.635 217.996C182.39 218.371 179.162 216.131 179.162 216.131C179.162 216.131 180.078 213.174 183.097 211.448C183.097 211.449 186.046 209.866 189.667 211.181Z" stroke="#263238" stroke-width="0.5" stroke-miterlimit="10" stroke-linecap="round" stroke-linejoin="round"/>
<path d="M178.637 217.021C178.838 217.163 179.121 217.063 179.192 216.828C179.735 215.04 182.893 207.001 194.406 213.3C194.406 213.3 189.634 209.77 184.644 210.713C180.246 211.544 178.778 215.635 178.492 216.594C178.447 216.746 178.494 216.914 178.621 217.009C178.627 217.013 178.632 217.017 178.637 217.021Z" fill="#92E3A9" stroke="#263238" stroke-width="0.5" stroke-miterlimit="10" stroke-linecap="round" stroke-linejoin="round"/>
<path d="M185.466 207.282C185.466 207.282 188.404 206.776 190.656 207.168C190.656 207.168 189.671 208.14 182.925 209.715C182.925 209.715 187.597 209.785 187.689 210.434C187.781 211.082 181.576 211.688 181.576 211.688C181.576 211.688 185.298 212.099 185.228 212.741C185.157 213.383 180.408 213.383 180.408 213.383C180.408 213.383 183.712 214.053 183.591 214.694C183.469 215.335 179.35 215.007 179.35 215.007C179.35 215.007 182.089 216.009 182.028 216.452C181.967 216.895 178.091 216.253 178.091 216.253C178.091 216.253 177.653 213.188 179.642 210.336C179.643 210.337 181.631 207.644 185.466 207.282Z" fill="#92E3A9"/>
<mask id="mask28_14_1403" style="mask-type:luminance" maskUnits="userSpaceOnUse" x="178" y="207" width="13" height="10">
<path d="M185.466 207.282C185.466 207.282 188.404 206.776 190.656 207.168C190.656 207.168 189.671 208.14 182.925 209.715C182.925 209.715 187.597 209.785 187.689 210.434C187.781 211.082 181.576 211.688 181.576 211.688C181.576 211.688 185.298 212.099 185.228 212.741C185.157 213.383 180.408 213.383 180.408 213.383C180.408 213.383 183.712 214.053 183.591 214.694C183.469 215.335 179.35 215.007 179.35 215.007C179.35 215.007 182.089 216.009 182.028 216.452C181.967 216.895 178.091 216.253 178.091 216.253C178.091 216.253 177.653 213.188 179.642 210.336C179.643 210.337 181.631 207.644 185.466 207.282Z" fill="white"/>
</mask>
<g mask="url(#mask28_14_1403)">
<path opacity="0.3" d="M185.466 207.282C185.466 207.282 188.404 206.776 190.656 207.168C190.656 207.168 189.671 208.14 182.925 209.715C182.925 209.715 187.597 209.785 187.689 210.434C187.781 211.082 181.576 211.688 181.576 211.688C181.576 211.688 185.298 212.099 185.228 212.741C185.157 213.383 180.408 213.383 180.408 213.383C180.408 213.383 183.712 214.053 183.591 214.694C183.469 215.335 179.35 215.007 179.35 215.007C179.35 215.007 182.089 216.009 182.028 216.452C181.967 216.895 178.091 216.253 178.091 216.253C178.091 216.253 177.653 213.188 179.642 210.336C179.642 210.336 181.631 207.644 185.466 207.282Z" fill="black" stroke="#263238" stroke-width="0.5" stroke-miterlimit="10"/>
</g>
<path d="M185.466 207.282C185.466 207.282 188.404 206.776 190.656 207.168C190.656 207.168 189.671 208.14 182.925 209.715C182.925 209.715 187.597 209.785 187.689 210.434C187.781 211.082 181.576 211.688 181.576 211.688C181.576 211.688 185.298 212.099 185.228 212.741C185.157 213.383 180.408 213.383 180.408 213.383C180.408 213.383 183.712 214.053 183.591 214.694C183.469 215.335 179.35 215.007 179.35 215.007C179.35 215.007 182.089 216.009 182.028 216.452C181.967 216.895 178.091 216.253 178.091 216.253C178.091 216.253 177.653 213.188 179.642 210.336C179.643 210.337 181.631 207.644 185.466 207.282Z" stroke="#263238" stroke-width="0.5" stroke-miterlimit="10" stroke-linecap="round" stroke-linejoin="round"/>
<path d="M177.998 217.282C178.241 217.324 178.454 217.113 178.418 216.87C178.143 215.022 177.555 206.405 190.657 207.168C190.657 207.168 184.833 206.021 180.727 209.009C177.108 211.643 177.533 215.968 177.685 216.958C177.709 217.114 177.824 217.246 177.979 217.277C177.985 217.279 177.992 217.28 177.998 217.282Z" fill="#92E3A9" stroke="#263238" stroke-width="0.5" stroke-miterlimit="10" stroke-linecap="round" stroke-linejoin="round"/>
<path d="M168.406 208.847C168.406 208.847 165.425 208.876 163.279 209.666C163.279 209.666 164.422 210.445 171.341 210.784C171.341 210.784 166.758 211.691 166.783 212.346C166.809 213.001 173.022 212.484 173.022 212.484C173.022 212.484 169.433 213.556 169.618 214.175C169.802 214.795 174.476 213.943 174.476 213.943C174.476 213.943 171.345 215.195 171.579 215.804C171.814 216.412 175.808 215.352 175.808 215.352C175.808 215.352 173.293 216.828 173.432 217.253C173.571 217.678 177.27 216.351 177.27 216.351C177.27 216.351 177.151 213.258 174.682 210.808C174.682 210.808 172.245 208.515 168.406 208.847Z" fill="#92E3A9"/>
<mask id="mask29_14_1403" style="mask-type:luminance" maskUnits="userSpaceOnUse" x="163" y="208" width="15" height="10">
<path d="M168.406 208.847C168.406 208.847 165.425 208.876 163.279 209.666C163.279 209.666 164.422 210.445 171.341 210.784C171.341 210.784 166.758 211.691 166.783 212.346C166.809 213.001 173.022 212.484 173.022 212.484C173.022 212.484 169.433 213.556 169.618 214.175C169.802 214.795 174.476 213.943 174.476 213.943C174.476 213.943 171.345 215.195 171.579 215.804C171.814 216.412 175.808 215.352 175.808 215.352C175.808 215.352 173.293 216.828 173.432 217.253C173.571 217.678 177.27 216.351 177.27 216.351C177.27 216.351 177.151 213.258 174.682 210.808C174.682 210.808 172.245 208.515 168.406 208.847Z" fill="white"/>
</mask>
<g mask="url(#mask29_14_1403)">
<path opacity="0.3" d="M168.406 208.847C168.406 208.847 165.425 208.876 163.279 209.666C163.279 209.666 164.422 210.445 171.341 210.784C171.341 210.784 166.758 211.691 166.783 212.346C166.809 213.001 173.022 212.484 173.022 212.484C173.022 212.484 169.433 213.556 169.618 214.175C169.802 214.795 174.476 213.943 174.476 213.943C174.476 213.943 171.345 215.195 171.579 215.804C171.814 216.412 175.808 215.352 175.808 215.352C175.808 215.352 173.293 216.828 173.432 217.253C173.571 217.678 177.27 216.351 177.27 216.351C177.27 216.351 177.151 213.258 174.682 210.808C174.682 210.808 172.245 208.515 168.406 208.847Z" fill="black" stroke="#263238" stroke-width="0.5" stroke-miterlimit="10"/>
</g>
<path d="M168.406 208.847C168.406 208.847 165.425 208.876 163.279 209.666C163.279 209.666 164.422 210.445 171.341 210.784C171.341 210.784 166.758 211.691 166.783 212.346C166.809 213.001 173.022 212.484 173.022 212.484C173.022 212.484 169.433 213.556 169.618 214.175C169.802 214.795 174.476 213.943 174.476 213.943C174.476 213.943 171.345 215.195 171.579 215.804C171.814 216.412 175.808 215.352 175.808 215.352C175.808 215.352 173.293 216.828 173.432 217.253C173.571 217.678 177.27 216.351 177.27 216.351C177.27 216.351 177.151 213.258 174.682 210.808C174.682 210.808 172.245 208.515 168.406 208.847Z" stroke="#263238" stroke-width="0.5" stroke-miterlimit="10" stroke-linecap="round" stroke-linejoin="round"/>
<path d="M177.546 217.345C177.315 217.431 177.068 217.261 177.06 217.015C176.999 215.148 176.032 206.565 163.28 209.666C163.28 209.666 168.803 207.493 173.379 209.697C177.411 211.639 177.769 215.97 177.796 216.971C177.801 217.129 177.711 217.279 177.565 217.339C177.559 217.341 177.553 217.343 177.546 217.345Z" fill="#92E3A9" stroke="#263238" stroke-width="0.5" stroke-miterlimit="10" stroke-linecap="round" stroke-linejoin="round"/>
<path d="M165.181 213.314C165.181 213.314 162.475 214.562 160.841 216.162C160.841 216.162 162.204 216.405 168.653 213.877C168.653 213.877 164.844 216.584 165.136 217.17C165.428 217.757 170.883 214.738 170.883 214.738C170.883 214.738 168.049 217.186 168.471 217.676C168.894 218.165 172.806 215.472 172.806 215.472C172.806 215.472 170.464 217.897 170.927 218.356C171.39 218.815 174.598 216.21 174.598 216.21C174.598 216.21 172.91 218.588 173.211 218.918C173.512 219.249 176.341 216.522 176.341 216.522C176.341 216.522 174.965 213.749 171.708 212.528C171.71 212.529 168.546 211.437 165.181 213.314Z" fill="#92E3A9"/>
<mask id="mask30_14_1403" style="mask-type:luminance" maskUnits="userSpaceOnUse" x="160" y="212" width="17" height="7">
<path d="M165.181 213.314C165.181 213.314 162.475 214.562 160.841 216.162C160.841 216.162 162.204 216.405 168.653 213.877C168.653 213.877 164.844 216.584 165.136 217.17C165.428 217.757 170.883 214.738 170.883 214.738C170.883 214.738 168.049 217.186 168.471 217.676C168.894 218.165 172.806 215.472 172.806 215.472C172.806 215.472 170.464 217.897 170.927 218.356C171.39 218.815 174.598 216.21 174.598 216.21C174.598 216.21 172.91 218.588 173.211 218.918C173.512 219.249 176.341 216.522 176.341 216.522C176.341 216.522 174.965 213.749 171.708 212.528C171.71 212.529 168.546 211.437 165.181 213.314Z" fill="white"/>
</mask>
<g mask="url(#mask30_14_1403)">
<path opacity="0.3" d="M165.181 213.314C165.181 213.314 162.475 214.562 160.841 216.162C160.841 216.162 162.204 216.405 168.653 213.877C168.653 213.877 164.844 216.584 165.136 217.17C165.428 217.757 170.883 214.738 170.883 214.738C170.883 214.738 168.049 217.186 168.471 217.676C168.894 218.165 172.806 215.472 172.806 215.472C172.806 215.472 170.464 217.897 170.927 218.356C171.39 218.815 174.598 216.21 174.598 216.21C174.598 216.21 172.91 218.588 173.211 218.918C173.512 219.249 176.341 216.522 176.341 216.522C176.341 216.522 174.965 213.749 171.708 212.528C171.71 212.529 168.546 211.437 165.181 213.314Z" fill="black" stroke="#263238" stroke-width="0.5" stroke-miterlimit="10"/>
</g>
<path d="M165.181 213.314C165.181 213.314 162.475 214.562 160.841 216.162C160.841 216.162 162.204 216.405 168.653 213.877C168.653 213.877 164.844 216.584 165.136 217.17C165.428 217.757 170.883 214.738 170.883 214.738C170.883 214.738 168.049 217.186 168.471 217.676C168.894 218.165 172.806 215.472 172.806 215.472C172.806 215.472 170.464 217.897 170.927 218.356C171.39 218.815 174.598 216.21 174.598 216.21C174.598 216.21 172.91 218.588 173.211 218.918C173.512 219.249 176.341 216.522 176.341 216.522C176.341 216.522 174.965 213.749 171.708 212.528C171.71 212.529 168.546 211.437 165.181 213.314Z" stroke="#263238" stroke-width="0.5" stroke-miterlimit="10" stroke-linecap="round" stroke-linejoin="round"/>
<path d="M177.003 217.317C176.827 217.49 176.532 217.436 176.424 217.215C175.603 215.537 171.201 208.106 160.842 216.164C160.842 216.164 164.989 211.917 170.066 212.051C174.54 212.169 176.642 215.972 177.078 216.874C177.147 217.016 177.127 217.189 177.017 217.303C177.012 217.307 177.008 217.312 177.003 217.317Z" fill="#92E3A9" stroke="#263238" stroke-width="0.5" stroke-miterlimit="10" stroke-linecap="round" stroke-linejoin="round"/>
</g>
<path d="M195.031 205.945H119.904V241.747H195.031V205.945Z" stroke="#263238" stroke-width="0.75" stroke-linecap="round" stroke-linejoin="round"/>
<path d="M133.287 200.415C137.984 198.45 140.198 193.049 138.233 188.352C136.268 183.655 130.867 181.441 126.17 183.406C121.474 185.371 119.259 190.772 121.225 195.469C123.19 200.166 128.591 202.38 133.287 200.415Z" fill="white"/>
<mask id="mask31_14_1403" style="mask-type:luminance" maskUnits="userSpaceOnUse" x="120" y="182" width="19" height="20">
<path d="M133.287 200.415C137.984 198.45 140.198 193.049 138.233 188.352C136.268 183.655 130.867 181.441 126.17 183.406C121.474 185.371 119.259 190.772 121.225 195.469C123.19 200.166 128.591 202.38 133.287 200.415Z" fill="white"/>
</mask>
<g mask="url(#mask31_14_1403)">
<path d="M133.643 194.926H131.956V194.541C133.188 193.584 133.52 191.685 133.52 189.782C133.52 187.085 131.822 185.412 129.727 185.412C127.633 185.412 125.934 187.085 125.934 189.782C125.934 191.685 126.266 193.584 127.499 194.541V194.926H125.812C124.221 194.926 122.873 196.094 122.646 197.668L122.013 202.041H137.442L136.81 197.668C136.581 196.094 135.233 194.926 133.643 194.926Z" fill="#858585"/>
</g>
<path d="M133.287 200.415C137.984 198.45 140.198 193.049 138.233 188.352C136.268 183.655 130.867 181.441 126.17 183.406C121.474 185.371 119.259 190.772 121.225 195.469C123.19 200.166 128.591 202.38 133.287 200.415Z" stroke="#263238" stroke-width="0.750001" stroke-linecap="round" stroke-linejoin="round"/>
<path d="M178.421 188.423H143.826C143.173 188.423 142.645 187.894 142.645 187.242C142.645 186.589 143.173 186.06 143.826 186.06H178.421C179.074 186.06 179.602 186.589 179.602 187.242C179.602 187.894 179.073 188.423 178.421 188.423Z" fill="#263238" stroke="#263238" stroke-width="0.75" stroke-linecap="round" stroke-linejoin="round"/>
<path d="M169.809 193.095H143.825C143.173 193.095 142.644 192.566 142.644 191.914C142.644 191.261 143.173 190.732 143.825 190.732H169.809C170.462 190.732 170.99 191.261 170.99 191.914C170.99 192.566 170.462 193.095 169.809 193.095Z" fill="#263238" stroke="#263238" stroke-width="0.75" stroke-linecap="round" stroke-linejoin="round"/>
<path d="M164.786 197.768H143.826C143.173 197.768 142.645 197.239 142.645 196.586C142.645 195.934 143.173 195.405 143.826 195.405H164.786C165.439 195.405 165.967 195.934 165.967 196.586C165.967 197.238 165.438 197.768 164.786 197.768Z" fill="#263238" stroke="#263238" stroke-width="0.75" stroke-linecap="round" stroke-linejoin="round"/>
<path d="M25.0775 173.599L21.175 175.418" stroke="#263238" stroke-linecap="round" stroke-linejoin="round"/>
<path d="M77.6448 183.233L67.2458 160.933C65.7653 157.759 61.9919 156.385 58.8176 157.866L26.459 172.955" stroke="#263238" stroke-linecap="round" stroke-linejoin="round"/>
<path d="M67.4158 196.685L75.2215 193.044C78.3959 191.564 79.7696 187.791 78.289 184.616" stroke="#263238" stroke-linecap="round" stroke-linejoin="round"/>
<path d="M58.563 214.439C60.3933 215.497 62.7175 214.412 63.0835 212.331L65.6918 197.488" stroke="#263238" stroke-linecap="round" stroke-linejoin="round"/>
<path d="M19.5829 176.161C16.4085 177.642 15.0348 181.415 16.5154 184.589L27.5585 208.272C29.0391 211.446 32.8124 212.82 35.9868 211.339L45.5165 206.895L56.2835 213.12" stroke="#263238" stroke-linecap="round" stroke-linejoin="round"/>
<path d="M31.7458 182.594C30.6824 183.09 29.9956 183.41 29.8414 183.482C28.3811 184.163 27.7494 185.899 28.4303 187.359C29.1113 188.819 30.8471 189.451 32.3073 188.77C32.9194 188.485 47.2707 181.793 55.1866 178.102" stroke="#263238" stroke-linecap="round" stroke-linejoin="round"/>
<path d="M56.3904 177.539C58.607 176.505 60.1079 175.806 60.2968 175.718C61.7571 175.037 62.3888 173.301 61.7079 171.841C61.027 170.38 59.2912 169.749 57.8309 170.43C56.9847 170.824 39.9851 178.751 32.8839 182.062" stroke="#263238" stroke-linecap="round" stroke-linejoin="round"/>
<path d="M53.8405 191.769C54.7196 191.359 55.3041 191.086 55.4451 191.021" stroke="#263238" stroke-linecap="round" stroke-linejoin="round"/>
<path d="M34.8368 194.193C33.3766 194.874 32.7448 196.61 33.4258 198.07C34.1067 199.53 35.8425 200.162 37.3027 199.481C37.9384 199.185 47.6656 194.649 52.621 192.338" stroke="#263238" stroke-linecap="round" stroke-linejoin="round"/>
<path d="M56.5492 190.124C57.1704 189.291 57.3259 188.152 56.8562 187.144C56.1752 185.684 54.4395 185.052 52.9792 185.733C52.089 186.148 40.4247 191.587 36.2532 193.532" stroke="#263238" stroke-linecap="round" stroke-linejoin="round"/>
<path d="M287.426 99.8682C287.583 96.3566 285.579 93.7969 282.657 93.1757C279.317 92.4659 276.043 94.5572 275.129 98.8579C274.484 101.891 274.37 105.032 276.01 106.975L275.879 107.589L273.679 107.122" stroke="#263238" stroke-linecap="round" stroke-linejoin="round"/>
<path d="M272.29 106.826C269.756 106.288 267.21 107.692 266.314 110.124L263.824 116.881L290.219 122.492L290.693 115.306C290.863 112.72 289.109 110.401 286.574 109.863L282.985 109.1L283.116 108.486C285.405 107.377 286.578 104.461 287.222 101.429" stroke="#263238" stroke-linecap="round" stroke-linejoin="round"/>
<path d="M301.706 131.134C304.375 130.618 306.61 128.558 307.211 125.732L313.187 97.6161C313.988 93.8474 311.582 90.1423 307.814 89.3413" stroke="#263238" stroke-linecap="round" stroke-linejoin="round"/>
<path d="M276.989 138.629L287.623 128.701L299.708 131.27" stroke="#263238" stroke-linecap="round" stroke-linejoin="round"/>
<path d="M248.993 103.473L246.983 112.93C246.182 116.699 248.588 120.404 252.357 121.205L263.67 123.61L270.139 138.873C271.046 141.014 273.806 141.601 275.506 140.014" stroke="#263238" stroke-linecap="round" stroke-linejoin="round"/>
<path d="M249.8 99.676L249.404 101.543" stroke="#263238" stroke-linecap="round" stroke-linejoin="round"/>
<path d="M305.731 88.8992L261.234 79.441C257.465 78.64 253.76 81.0455 252.959 84.8143L250.238 97.6168" stroke="#263238" stroke-linecap="round" stroke-linejoin="round"/>
<path d="M66.2126 69.5997L65.0345 71.2141L55.3519 64.2126M63.4935 51.0815C64.5346 49.6298 65.6872 48.6477 68.0717 48.2699C71.6955 47.6959 74.4638 49.7072 75.0312 53.2909C75.3638 55.3907 74.7879 57.8881 72.9445 60.3777L67.0103 68.5068M54.1619 63.3526C51.6389 61.5552 50.3197 59.3576 49.9871 57.2577C49.4197 53.674 51.431 50.9057 55.0547 50.3317C58.4318 49.797 59.8337 51.1786 62.1697 53.1308C62.4026 52.7602 62.6204 52.4066 62.8329 52.0707" stroke="#263238" stroke-linecap="round" stroke-linejoin="round"/>
<path d="M89.8214 73.5672C91.9193 72.2604 93.1441 69.784 92.7334 67.1895L88.6459 41.3805C88.0981 37.9208 84.849 35.5605 81.3892 36.1083" stroke="#263238" stroke-linecap="round" stroke-linejoin="round"/>
<path d="M71.2855 87.9803L77.076 76.0903L88.1696 74.3335" stroke="#263238" stroke-linecap="round" stroke-linejoin="round"/>
<path d="M36.0721 67.2637L37.4471 75.9452C37.9948 79.4049 41.244 81.7652 44.7037 81.2174L55.0889 79.5729L65.5514 90.4198C67.0189 91.9411 69.5524 91.5396 70.4773 89.6398" stroke="#263238" stroke-linecap="round" stroke-linejoin="round"/>
<path d="M35.5197 63.7791L35.7913 65.4925" stroke="#263238" stroke-linecap="round" stroke-linejoin="round"/>
<path d="M79.4776 36.4106L38.6311 42.8801C35.1714 43.4279 32.8111 46.677 33.3589 50.1368L35.2199 61.889" stroke="#263238" stroke-linecap="round" stroke-linejoin="round"/>
</g>
<defs>
<filter id="filter0_d_14_1403" x="-4" y="0" width="348" height="348" filterUnits="userSpaceOnUse" color-interpolation-filters="sRGB">
<feFlood flood-opacity="0" result="BackgroundImageFix"/>
<feColorMatrix in="SourceAlpha" type="matrix" values="0 0 0 0 0 0 0 0 0 0 0 0 0 0 0 0 0 0 127 0" result="hardAlpha"/>
<feOffset dx="6" dy="10"/>
<feGaussianBlur stdDeviation="5"/>
<feColorMatrix type="matrix" values="0 0 0 0 0 0 0 0 0 0 0 0 0 0 0 0 0 0 0.16 0"/>
<feBlend mode="normal" in2="BackgroundImageFix" result="effect1_dropShadow_14_1403"/>
<feBlend mode="normal" in="SourceGraphic" in2="effect1_dropShadow_14_1403" result="shape"/>
</filter>
</defs>
</svg>
